<svg xmlns="http://www.w3.org/2000/svg" version="1.2" viewBox="0 0 470 470" preserveAspectRatio="xMidYMid meet" baseProfile="tiny-ps" xml:space="preserve"><title>Hardee District Schools Wauchula FL</title>
  
  
  <g id="white">
    <rect class="st0" width="497.81" height="363.96" fill="#fff"/>
  </g>
  <g id="option5" class="st4">
    <g id="logo_copy_4">
      <g>
        <g>
          <path class="st7" d="M50.59,305.55l.23-7.01c0-3.08-.31-5.09-.92-6.06-.61-.97-1.64-1.45-3.09-1.45-.84,0-1.26-.18-1.26-.53,0-.32.25-.48.76-.48l7.35.25,6.24-.13c.49,0,.73.15.73.45,0,.27-.16.4-.48.4-1.28,0-2.27.19-2.97.55-.71.37-1.17,1-1.4,1.89-.23.89-.41,3.43-.55,7.62-.14,4.19-.21,7.24-.21,9.14l-.08,6.2c0,1.93.19,3.19.55,3.77.37.58.92,1.03,1.65,1.36.73.33,1.48.53,2.26.62.54.07.81.23.81.48,0,.27-.23.4-.68.4l-7.78-.2-5.07.18c-.59,0-.88-.15-.88-.45,0-.25.21-.39.63-.4,1.34-.08,2.22-.26,2.63-.53.41-.27.74-.78,1-1.54.25-.76.4-2.03.43-3.83l.13-9.15c-1.44-.1-2.91-.15-4.4-.15-6.49,0-10.61.12-12.36.35-.13,3.22-.2,5.87-.2,7.95,0,2.33.05,3.77.15,4.3.1.54.42,1.04.94,1.5.53.46,1.26.78,2.18.97.57.12.86.3.86.55,0,.3-.19.45-.55.45-.12,0-.29-.02-.5-.05-.91-.1-2.79-.15-5.65-.15-3.11,0-5.02.07-5.72.22-.15.02-.3.03-.45.03-.39,0-.58-.13-.58-.39,0-.29.26-.47.78-.54,1.29-.15,2.22-.51,2.77-1.08.55-.57.94-2.71,1.15-6.42.21-3.71.31-8.21.31-13.51,0-4.31-.2-7.03-.6-8.15-.4-1.12-1.39-1.75-2.95-1.86-.35-.03-.53-.17-.53-.41,0-.35.36-.52,1.08-.52l10.16-.15c.72,0,1.15.02,1.3.06.14.04.21.18.21.41,0,.26-.22.42-.66.47-1.66.17-2.68.47-3.04.91-.36.44-.54,3.17-.54,8.18,0,.52.03,2.35.08,5.48,1.71.13,3.72.2,6.04.2,2.99,0,6.56-.07,10.72-.2Z" fill="#e2881b" stroke="#21409a" stroke-miterlimit="10" stroke-width=".5px"/>
          <path class="st7" d="M78.65,289.19h1.16c1.88,3.85,4.47,10.43,7.77,19.73,2.13,5.97,3.59,9.62,4.38,10.98s2.06,2.1,3.82,2.26c.56.05.83.24.83.55,0,.24-.14.35-.43.35l-.35-.03c-1.55-.13-3.51-.2-5.9-.2-3.66,0-6.02.06-7.06.18-.52,0-.78-.15-.78-.45,0-.22.19-.35.58-.4,1.43-.13,2.42-.38,2.96-.73.55-.35.82-.91.82-1.66s-.51-2.53-1.54-5.42l-1.48-4.33c-.87,0-4.78.05-11.72.15-1.75,4.65-2.63,7.59-2.63,8.81,0,1.03.43,1.79,1.3,2.29.87.5,1.72.77,2.56.82.62.05.93.24.93.56,0,.13-.1.25-.3.37-2.69-.12-4.31-.18-4.86-.18-2.82,0-4.72.03-5.7.1-.54,0-.81-.15-.81-.45,0-.27.23-.44.71-.5,1.93-.25,3.41-1.56,4.44-3.93,1.02-2.37,2.62-6.63,4.79-12.78,1.98-5.59,4.15-10.96,6.51-16.08ZM77.64,294.69c-1.56,3.19-3.39,7.83-5.48,13.91,1.73-.08,2.97-.13,3.73-.13l7.08.13c-.62-1.75-1.49-4.07-2.62-6.96-1.38-3.44-2.28-5.76-2.72-6.96Z" fill="#e2881b" stroke="#21409a" stroke-miterlimit="10" stroke-width=".5px"/>
          <path class="st7" d="M118.49,305.94c2.33,1.01,3.96,2.07,4.87,3.17.91,1.1,1.59,2.81,2.02,5.11.57,3.02,1.35,5.06,2.35,6.1,1,1.04,2.32,1.6,3.94,1.66.45.03.68.2.68.49s-.26.44-.78.44c-4.7,0-7.56-.15-8.56-.47-1-.31-1.74-2.03-2.23-5.15-.45-3.04-.93-5.26-1.42-6.67-.5-1.4-1.29-2.48-2.37-3.23-1.08-.75-2.78-1.12-5.08-1.12-.87,0-1.87.09-2.97.28-.08,1.06-.13,2.16-.13,3.3,0,4.31.06,7.1.18,8.37.12,1.27.47,2.19,1.07,2.77.6.58,1.59.88,2.99.92.6.02.91.16.91.44,0,.33-.37.49-1.11.49h-12.48c-.72,0-1.08-.16-1.08-.49,0-.29.29-.44.86-.44,1.28,0,2.16-.19,2.66-.58s.89-.99,1.17-1.8c.29-.81.43-2.29.43-4.42l-.05-5.14.02-7.83c0-4-.09-6.64-.26-7.93-.18-1.29-.49-2.16-.94-2.61s-1.5-.79-3.15-1.04c-.35-.05-.53-.19-.53-.43,0-.27.35-.4,1.06-.4l14.92-.33c4.12,0,7.1.79,8.96,2.37,1.86,1.58,2.78,3.51,2.78,5.79,0,1.44-.37,2.76-1.12,3.95-.75,1.19-1.63,2.06-2.66,2.59-1.03.54-2.67,1.15-4.94,1.84ZM108.93,305.3c3.23-.07,5.65-.29,7.26-.68,1.61-.39,2.99-1.24,4.12-2.55s1.7-2.86,1.7-4.66c0-1.9-.63-3.55-1.89-4.97-1.26-1.41-3.28-2.12-6.05-2.12-1.51,0-3.18.2-5.02.61-.2,4.62-.3,8.3-.3,11.04,0,.94.06,2.05.18,3.33Z" fill="#e2881b" stroke="#21409a" stroke-miterlimit="10" stroke-width=".5px"/>
          <path class="st7" d="M144.4,289.87l5.19-.1c6.57,0,11.53,1.6,14.9,4.79,3.36,3.19,5.04,7.22,5.04,12.07,0,3.44-.81,6.44-2.42,8.99-1.61,2.54-3.63,4.46-6.05,5.76s-5.65,1.94-9.68,1.94c-.91,0-2.06-.05-3.45-.15-2.49-.2-3.88-.3-4.18-.3-5.51,0-8.75.06-9.73.18-.55,0-.83-.14-.83-.42,0-.2.1-.33.3-.39.2-.07.82-.16,1.87-.29,1.34-.19,2.29-.72,2.84-1.61.55-.89.89-3.67,1.02-8.32l.4-13.34c0-1.55-.1-3.04-.31-4.48-.21-1.44-.54-2.36-.98-2.78-.45-.41-1.16-.69-2.13-.84-.71-.1-1.06-.29-1.06-.58,0-.35.18-.53.53-.53s1.37.07,3.09.21c1.72.14,3.61.21,5.66.21ZM143.51,314.22c0,2.22.15,3.8.44,4.75.29.95.92,1.73,1.89,2.34.97.61,2.52.92,4.65.92,3.06,0,5.54-.72,7.44-2.17s3.38-3.37,4.45-5.77c1.07-2.4,1.6-4.96,1.6-7.66,0-4-1.22-7.62-3.65-10.86-2.44-3.24-6.23-4.86-11.37-4.86-2.29,0-3.62.08-4,.23s-.57.6-.57,1.34c0,.66-.06,1.82-.18,3.5-.17,2.45-.28,4.37-.33,5.75l-.23,6.93c-.1,3.24-.15,5.1-.15,5.57Z" fill="#e2881b" stroke="#21409a" stroke-miterlimit="10" stroke-width=".5px"/>
          <path class="st7" d="M200.52,290.15c.49,1.88.97,4.52,1.44,7.91-.08.13-.17.2-.27.2-.11,0-.24-.07-.37-.2-1.16-1.87-2.27-3.29-3.33-4.26-1.06-.97-2.12-1.67-3.19-2.08-1.07-.41-2.9-.62-5.51-.62-2.46,0-4.4.14-5.83.43-.13.17-.2.48-.2.93,0,.12-.02.33-.05.63-.17,1.34-.25,4.98-.25,10.92,0,.25.02.6.05,1.06,1.28.05,2.15.08,2.62.08,2.12,0,3.65-.32,4.6-.95.95-.63,1.78-2,2.48-4.09.12-.35.28-.53.5-.53.32,0,.47.24.47.73l-.1,1.01c-.13,1.33-.2,2.7-.2,4.12,0,2.29.04,4.35.13,6.19,0,.57-.15.86-.46.86-.23,0-.38-.2-.46-.61-.35-1.98-1.1-3.41-2.23-4.28-1.13-.87-3.58-1.31-7.36-1.31-.05,1.23-.08,3.21-.08,5.95,0,3.55.13,5.8.38,6.75.25.96.86,1.72,1.82,2.28.96.56,2.58.84,4.87.84,6.54,0,10.76-2.25,12.66-6.75.23-.55.47-.83.72-.83.27,0,.4.19.4.55,0,.2-.04.42-.13.66-.1.32-.34,1.51-.73,3.58-.08.44-.4,1.75-.96,3.93l-10.56-.03c-1.51,0-3.73-.06-6.67-.19s-5.53-.19-7.79-.2c-2.26,0-3.44-.05-3.54-.14-.1-.08-.15-.18-.15-.28,0-.34.28-.5.83-.5,1.87,0,3.09-.5,3.68-1.49.59-.99.88-3.4.88-7.23l-.02-5.16.08-4.84c0-.97-.06-2.82-.16-5.53-.11-2.71-.21-4.26-.3-4.65-.09-.39-.35-.77-.78-1.15-.43-.38-1.37-.76-2.84-1.15-.44-.12-.66-.3-.66-.55,0-.3.29-.45.88-.45l5.14.28c1.81.08,6.28.13,13.38.13,4.67,0,7.06,0,7.16.03Z" fill="#e2881b" stroke="#21409a" stroke-miterlimit="10" stroke-width=".5px"/>
          <path class="st7" d="M234.4,290.15c.49,1.88.97,4.52,1.44,7.91-.08.13-.17.2-.27.2-.11,0-.24-.07-.37-.2-1.16-1.87-2.27-3.29-3.33-4.26-1.06-.97-2.12-1.67-3.19-2.08-1.07-.41-2.9-.62-5.51-.62-2.45,0-4.4.14-5.83.43-.13.17-.2.48-.2.93,0,.12-.02.33-.05.63-.17,1.34-.25,4.98-.25,10.92,0,.25.02.6.05,1.06,1.28.05,2.15.08,2.62.08,2.12,0,3.65-.32,4.6-.95s1.78-2,2.48-4.09c.12-.35.28-.53.5-.53.32,0,.48.24.48.73l-.1,1.01c-.13,1.33-.2,2.7-.2,4.12,0,2.29.04,4.35.13,6.19,0,.57-.15.86-.46.86-.23,0-.38-.2-.46-.61-.35-1.98-1.1-3.41-2.23-4.28-1.13-.87-3.58-1.31-7.36-1.31-.05,1.23-.08,3.21-.08,5.95,0,3.55.13,5.8.38,6.75s.86,1.72,1.82,2.28c.96.56,2.58.84,4.87.84,6.54,0,10.76-2.25,12.66-6.75.23-.55.47-.83.72-.83.27,0,.4.19.4.55,0,.2-.04.42-.13.66-.1.32-.34,1.51-.73,3.58-.08.44-.4,1.75-.96,3.93l-10.56-.03c-1.51,0-3.73-.06-6.67-.19-2.93-.13-5.53-.19-7.79-.2-2.26,0-3.44-.05-3.54-.14-.1-.08-.15-.18-.15-.28,0-.34.28-.5.83-.5,1.87,0,3.09-.5,3.68-1.49.59-.99.88-3.4.88-7.23l-.03-5.16.08-4.84c0-.97-.05-2.82-.16-5.53-.11-2.71-.21-4.26-.3-4.65-.09-.39-.35-.77-.78-1.15-.43-.38-1.37-.76-2.84-1.15-.44-.12-.66-.3-.66-.55,0-.3.29-.45.88-.45l5.14.28c1.81.08,6.28.13,13.38.13,4.67,0,7.06,0,7.16.03Z" fill="#e2881b" stroke="#21409a" stroke-miterlimit="10" stroke-width=".5px"/>
          <path class="st7" d="M280.47,291.94c.92-.82,1.46-1.38,1.59-1.66.17-.4.41-.61.73-.61.34,0,.52.3.55.91l.55,8.8c0,.5-.02.81-.06.92-.04.11-.16.16-.37.16-.27,0-.55-.36-.86-1.08-1.11-2.68-2.66-4.87-4.64-6.58-2-1.7-4.17-2.55-6.5-2.55-2.05,0-3.93.66-5.65,1.98s-3.05,3.2-4,5.65c-.95,2.45-1.42,5.07-1.42,7.88,0,4.77,1.32,8.65,3.95,11.63,2.63,2.98,5.57,4.47,8.81,4.47,2.2,0,4.23-.7,6.08-2.09,1.85-1.39,3.24-3.01,4.18-4.84.25-.5.51-.76.78-.76.37,0,.55.2.55.6,0,.49-.64,1.55-1.92,3.2s-2.95,2.98-5.03,4.01c-2.08,1.03-4.31,1.54-6.69,1.54-2.81,0-5.48-.71-8-2.14-2.53-1.43-4.53-3.4-6.01-5.92-1.48-2.52-2.22-5.48-2.22-8.87s.72-6.33,2.16-9c1.44-2.67,3.46-4.75,6.07-6.22,2.61-1.48,5.3-2.22,8.07-2.22,1.48,0,2.99.23,4.54.69,1.55.46,3.13,1.16,4.74,2.1Z" fill="#e2881b" stroke="#21409a" stroke-miterlimit="10" stroke-width=".5px"/>
          <path class="st7" d="M287.98,306.13c0-2.27.69-4.76,2.07-7.47,1.38-2.71,3.39-4.95,6.04-6.72,2.65-1.76,5.63-2.65,8.96-2.65,4.65,0,8.5,1.66,11.53,4.99,3.03,3.33,4.55,7.12,4.55,11.39,0,4.54-1.68,8.61-5.04,12.21-3.36,3.6-7.4,5.41-12.12,5.41s-8.31-1.58-11.38-4.74c-3.07-3.16-4.6-7.3-4.6-12.42ZM293.6,305.31c0,2.74.42,5.55,1.26,8.44.84,2.88,2.16,4.98,3.95,6.28,1.8,1.3,3.72,1.95,5.76,1.95,3.31,0,5.95-1.61,7.94-4.83,1.99-3.22,2.98-6.95,2.98-11.19s-1.02-7.71-3.05-10.81c-2.03-3.1-4.68-4.65-7.96-4.65-2.47,0-4.52.83-6.17,2.48-1.65,1.66-2.84,3.64-3.6,5.94-.75,2.3-1.13,4.43-1.13,6.38Z" fill="#e2881b" stroke="#21409a" stroke-miterlimit="10" stroke-width=".5px"/>
          <path class="st7" d="M326.04,289.85h12.63c.72,0,1.08.15,1.08.45s-.27.48-.81.53c-1.19.12-2.08.45-2.65.98-.57.54-1,1.49-1.3,2.85-.29,1.36-.44,4.28-.44,8.75,0,5.36.16,9.07.47,11.14.31,2.07,1.29,3.71,2.92,4.93,1.64,1.22,3.87,1.83,6.69,1.83s5.21-.56,6.75-1.69c1.54-1.12,2.55-2.8,3.01-5.02.46-2.22.69-7.03.69-14.44,0-3.81-.39-6.31-1.18-7.5-.79-1.18-1.96-1.78-3.5-1.78-.62,0-.93-.18-.93-.53s.41-.5,1.24-.5h10.08c.45,0,.68.17.68.5,0,.24-.18.38-.55.43-1.28.19-2.21.59-2.81,1.21-.6.62-.99,1.75-1.17,3.38-.19,1.63-.28,4.02-.28,7.18,0,3.95-.15,7.3-.44,10.06s-.93,4.81-1.9,6.16-2.44,2.44-4.4,3.28c-1.96.83-4.37,1.25-7.22,1.25s-5.41-.47-7.47-1.4-3.45-2.17-4.18-3.71c-.73-1.54-1.1-3.84-1.1-6.9l.1-6.99c0-6.2-.26-10-.79-11.39-.53-1.39-1.67-2.1-3.42-2.13-.57,0-.86-.14-.86-.42,0-.34.35-.52,1.06-.52Z" fill="#e2881b" stroke="#21409a" stroke-miterlimit="10" stroke-width=".5px"/>
          <path class="st7" d="M371.86,290.03c1.01,1.36,2.76,3.47,5.24,6.33l8.07,9.35,7.76,8.97c.17-3.04.25-6.99.25-11.85,0-3.65-.08-6.09-.23-7.32-.15-1.23-.71-2.27-1.68-3.11-.97-.84-2.17-1.26-3.62-1.26-.67,0-1.01-.14-1.01-.43,0-.17.07-.29.21-.37.14-.08,1.27-.15,3.39-.23s3.9-.11,5.34-.11l3.4.02h.55c.52,0,.78.15.78.44,0,.26-.23.42-.68.47-1.7.18-2.92.63-3.67,1.32-.75.7-1.19,1.7-1.34,3.01s-.21,5.73-.21,13.24l-.25,13.32c0,.67-.17,1.01-.5,1.01-.09,0-.2-.04-.35-.11-.15-.08-.9-.92-2.26-2.55-1.36-1.62-3.04-3.57-5.03-5.83-1.99-2.27-3.56-4.11-4.7-5.52-2.5-3.04-4.08-4.92-4.74-5.62-2.44-2.59-3.87-4.25-4.31-4.99-.29-.5-.55-.76-.78-.76-.18,0-.28.33-.28.98l.05,3.91c0,4.96.13,8.91.4,11.87.27,2.96.55,4.69.84,5.21.29.51.81,1.03,1.54,1.55.73.52,1.51.78,2.33.78,1.11,0,1.66.2,1.66.61,0,.3-.31.45-.93.45l-12.12-.03c-.57,0-.86-.14-.86-.43,0-.34.28-.5.83-.5,2.07,0,3.44-.46,4.13-1.37.69-.92,1.03-2.86,1.03-5.83l-.21-8.85c0-5.23-.14-8.3-.42-9.24-.29-.93-.93-2.07-1.93-3.4s-2.14-2.09-3.42-2.26c-.57-.07-.86-.22-.86-.45,0-.32.37-.48,1.11-.48l7.41.05Z" fill="#e2881b" stroke="#21409a" stroke-miterlimit="10" stroke-width=".5px"/>
          <path class="st7" d="M417.13,291.24c-1.31-.07-2.24-.1-2.77-.1-3.63,0-6.26.76-7.89,2.28-1.63,1.52-2.58,2.87-2.85,4.05-.08.42-.31.63-.68.63-.17,0-.33-.08-.48-.24.08-2,.41-4.7.98-8.1.81-.02,1.32-.03,1.54-.03,1.31,0,3.07.07,5.27.2,2.37.13,6,.2,10.89.2s8.27-.06,9.78-.18c1.38-.13,3.27-.2,5.67-.2.2,1.21.34,2.47.4,3.78.1,1.5.2,2.55.3,3.15.02.13.03.28.03.43,0,.4-.18.6-.53.6-.22,0-.4-.07-.54-.21s-.46-.62-.97-1.42c-.87-1.36-1.78-2.39-2.72-3.09-.94-.7-1.99-1.15-3.15-1.35-1.16-.2-3.5-.33-7.04-.4-.2,2.54-.3,5.44-.3,8.7,0,10.79.23,17.15.69,19.08.46,1.93,2.11,2.9,4.95,2.9.69,0,1.03.14,1.03.43,0,.34-.33.5-.98.5h-15.5c-.4,0-.6-.16-.6-.48s.39-.48,1.18-.48c1.33,0,2.4-.37,3.21-1.12.82-.75,1.29-1.76,1.41-3.04.13-1.28.19-4.97.19-11.06,0-5.21-.18-10.35-.53-15.42Z" fill="#e2881b" stroke="#21409a" stroke-miterlimit="10" stroke-width=".5px"/>
          <path class="st7" d="M457.96,305.6c.94-1.04,2.37-2.92,4.3-5.65,1.92-2.72,3.06-4.41,3.4-5.08.34-.66.52-1.19.52-1.58,0-.69-.35-1.24-1.05-1.65-.7-.41-1.41-.62-2.13-.62-.57,0-.86-.15-.86-.45,0-.32.48-.48,1.44-.48h9.5c.87,0,1.31.18,1.31.53,0,.29-.19.43-.58.43-.99,0-1.95.23-2.86.68-.92.45-2.03,1.47-3.34,3.05l-4.39,5.92c-2.3,3.09-3.55,4.91-3.73,5.44-.27.79-.4,2.88-.4,6.28,0,4.5.19,7.17.57,8.01.38.84,1.6,1.35,3.67,1.54.54.05.81.22.81.5,0,.34-.29.5-.88.5l-6.79-.15c-1.63,0-2.97.03-4.01.1-.84.07-1.38.1-1.62.1-.64,0-.96-.17-.96-.5,0-.27.24-.41.71-.43,1.62-.07,2.7-.67,3.24-1.82.54-1.14.81-2.83.81-5.07,0-2.45-.15-4.44-.45-5.95-.07-.39-.79-1.76-2.17-4.12-1.38-2.36-3.06-4.97-5.05-7.84-1.99-2.86-3.42-4.61-4.27-5.23-.86-.62-1.69-.97-2.5-1.03-.61-.05-.91-.22-.91-.5,0-.18.08-.31.24-.37.16-.06.63-.09,1.42-.09h11.01c.76,0,1.21.03,1.36.08.15.05.23.18.23.4,0,.27-.21.42-.63.45-2.12.17-3.18.81-3.18,1.92,0,.57.39,1.47,1.16,2.7.77,1.23,3.13,4.55,7.06,9.96Z" fill="#e2881b" stroke="#21409a" stroke-miterlimit="10" stroke-width=".5px"/>
        </g>

        <g>
          <path class="st8" d="M45.36,348.79c-2.97,0-5.13-.61-8.4-2.16l1.76-3.47c2.58,1.33,4.72,1.84,6.36,1.84s3.33-.3,3.33-1.05c0-.65-2.6-.81-4.08-.89-3.23-.18-7.31-.93-7.31-4.38,0-3.92,5.25-4.7,8.28-4.7,2.69,0,5.21.67,8.16,2.1l-1.49,3.09c-2.46-1.11-4.85-1.41-6.66-1.41-2.48,0-2.99.5-2.99.81,0,.52,2.46.63,3.37.63,3.15.24,8.03.69,8.03,4.74s-4.48,4.86-8.36,4.86Z" fill="#21409a"/>
          <path class="st8" d="M77.43,348.77c-5.45,0-9.69-2.52-9.69-7.45,0-4.58,3.77-7.41,9.41-7.41,3.63,0,6.66,1.13,8.2,2.48l-1.86,3.29c-2.04-1.33-4-1.78-6.02-1.78-2.24,0-4.16.93-4.16,3.25s1.94,3.27,4.14,3.27,4.32-.34,6.04-1.74l1.82,3.39c-1.39,1.23-3.78,2.69-7.87,2.69Z" fill="#21409a"/>
          <path class="st8" d="M111.1,343.58h-5.9v4.87h-5.49v-14.15h5.51v5.25h5.87v-5.25h5.51v14.15h-5.51v-4.87Z" fill="#21409a"/>
          <path class="st8" d="M141.01,348.81c-5.47,0-10.05-2.5-10.05-7.43s4.22-7.47,10.05-7.47,10.05,2.64,10.05,7.53-4.48,7.37-10.05,7.37ZM141.01,337.79c-3.15,0-4.82,1.49-4.82,3.65,0,2.02,1.68,3.55,4.82,3.55s4.82-1.47,4.82-3.55-1.7-3.65-4.82-3.65Z" fill="#21409a"/>
          <path class="st8" d="M174.73,348.81c-5.47,0-10.05-2.5-10.05-7.43s4.22-7.47,10.05-7.47,10.05,2.64,10.05,7.53-4.48,7.37-10.05,7.37ZM174.73,337.79c-3.15,0-4.82,1.49-4.82,3.65,0,2.02,1.68,3.55,4.82,3.55s4.82-1.47,4.82-3.55-1.7-3.65-4.82-3.65Z" fill="#21409a"/>
          <path class="st8" d="M198.85,334.3h5.47v10.09h10.11v4.06h-15.56l-.02-14.15Z" fill="#21409a"/>
          <path class="st8" d="M257.51,348.45h-8.44v-14.15h9.21c5.71,0,8.46,3.35,8.46,7.07,0,4.04-3.09,7.09-9.23,7.09ZM256.66,337.93h-2.12c0,4.97-.02,5.51-.02,6.86h2.06c3.21,0,4.83-1.47,4.83-3.35,0-2-1.01-3.51-4.74-3.51Z" fill="#21409a"/>
          <path class="st8" d="M281.64,334.3h5.47v14.15h-5.47v-14.15Z" fill="#21409a"/>
          <path class="st8" d="M309.58,348.79c-2.97,0-5.13-.61-8.4-2.16l1.76-3.47c2.58,1.33,4.72,1.84,6.36,1.84s3.33-.3,3.33-1.05c0-.65-2.6-.81-4.08-.89-3.23-.18-7.31-.93-7.31-4.38,0-3.92,5.25-4.7,8.28-4.7,2.68,0,5.21.67,8.16,2.1l-1.49,3.09c-2.46-1.11-4.84-1.41-6.66-1.41-2.48,0-2.99.5-2.99.81,0,.52,2.46.63,3.37.63,3.15.24,8.04.69,8.04,4.74s-4.48,4.86-8.36,4.86Z" fill="#21409a"/>
          <path class="st8" d="M342.68,348.47h-5.51l-.02-10.36h-6.26v-3.82h18.05v3.82h-6.26v10.36Z" fill="#21409a"/>
          <path class="st8" d="M368.41,343.44h-.69v5.01h-5.41l-.02-14.15h9.85c4.16,0,6.34,1.76,6.34,4.44,0,2.04-1.86,3.61-4.32,4.28,1.53,1.41,3.98,3.45,5.47,4.83l-.22.61h-5.49l-5.51-5.01ZM371.2,337.59h-3.47v2.3h3.33c1.25-.02,1.9-.63,1.9-1.13s-.46-1.17-1.76-1.17Z" fill="#21409a"/>
          <path class="st8" d="M393.76,334.3h5.47v14.15h-5.47v-14.15Z" fill="#21409a"/>
          <path class="st8" d="M423.19,348.77c-5.45,0-9.69-2.52-9.69-7.45,0-4.58,3.77-7.41,9.41-7.41,3.63,0,6.66,1.13,8.2,2.48l-1.86,3.29c-2.04-1.33-4-1.78-6.02-1.78-2.24,0-4.16.93-4.16,3.25s1.94,3.27,4.14,3.27,4.32-.34,6.04-1.74l1.82,3.39c-1.39,1.23-3.77,2.69-7.87,2.69Z" fill="#21409a"/>
          <path class="st8" d="M455.85,348.47h-5.51l-.02-10.36h-6.26v-3.82h18.05v3.82h-6.26v10.36Z" fill="#21409a"/>
        </g>
        <g>
          <path id="reaching_arm" class="st1" d="M243.12,80.77s3.04,17.89-11.04,46.05c-14.08,28.16,7.23,83.73,7.23,83.73,0,0-1.14,6.47-9.51-25.12-8.37-31.59-5.33-51.38-4.57-62.8.76-11.42,16.37-34.25,17.89-41.86Z" fill="#f7941d"/>
          <path id="shoulder" class="st1" d="M265.95,177.44v29.31c0,3.81,2.38.75,2.38-7.57s.57-15.46,1.71-15.46,19.7,24.5,22.26,27.38c2.57,2.88,4.57.88-2-7.68-6.57-8.56-14.27-23.98-17.13-25.98-2.85-2-5.04-2.57-7.23,0Z" fill="#f7941d"/>
          <path id="other_arm" class="st1" d="M300.02,207.7c-1.85-2.68-16.56-25.42-20.84-31.98s-4.28-15.12-15.7-15.12-14.65,4.28-17.7,6.95c-3.04,2.66-8.37,3.81-8.37,1.52s5.71-4.19,9.13-6.85,5.71-5.71,14.46-6.09c8.75-.38,15.46,2.66,19.34,8.37,3.88,5.71,16.82,32.73,19.67,37.3,2.85,4.57,2.07,8.9,0,5.9Z" fill="#f7941d"/>
          <path id="head" class="st1" d="M263.29,141.66c-3.03,3.53-5.71,6.85-4.19,7.99s11.8-5.33,12.94-7.99c1.14-2.66,4.33-12.56-2.4-20.17-6.73-7.61-15.49-7.23-20.81-5.71-5.33,1.52-14.59,19.41-15.1,23.22-.51,3.81,6.34,8.26,6.72,10.79s1.27,20.03,1.27,20.03l5.48-5.8s1.43-11.42,0-14.56c-1.43-3.14-8.47-7.99-9.8-10.28s6.37-13.7,11.8-17.41c5.42-3.71,11.7-1.43,14.56,3.14s3.77,11.8-.48,16.75Z" fill="#f7941d"/>
          <path id="star" class="st8" d="M280.34,33.58c-6.59-9.13-2.59-26.26-3.73-25.12s-11.46,12.84-22.86,16.84c-11.4,4-32.57-3.71-29.69,0,2.88,3.71,10.87,9.99,11.16,20.27.29,10.28-12.17,16.84-1.52,40.25,0,0,4.09-12.84,8.37-16.27,4.28-3.43,9.42-4,13.99,5.71,4.57,9.71,8.56,12.56,8.56,12.56,0,0-5.14-14.84,3.71-26.83,8.85-11.99,22.26-17.98,29.11-18.55,6.85-.57-10.51.29-17.1-8.85ZM265.95,51.56c-7.52,9.13-4.76,24.26-5.9,19.7-1.14-4.57-7.14-12.27-11.99-12.85-4.85-.57-13.13,10.56-13.13,10.56,0,0,5.42-14.56,5.71-22.7.29-8.14-6.94-14.69-6.94-14.69,0,0,11.22.57,19.29-.29,8.06-.86,16.65-10.85,16.65-10.85,0,0-1.59,9.71,1.55,15.13s9.16,5.42,9.16,5.42c0,0-6.87,1.43-14.39,10.56Z" fill="#21409a"/>
          <path id="book_cover" class="st8" d="M123.04,251.27c-2.85,0-2.57,7.14,0,7.14h116.75s0,2.85,1.43,2.85h19.7c1.71,0,.95-3.71.95-3.71,0,0,111.23.28,113.22.28s2.57-5.99,0-6.57-113.32.03-113.32.03c0,0-1.14,4.44-10.85,4.44s-9.71-4.44-9.71-4.44l-118.17-.03Z" fill="#21409a"/>
          <path id="pageleft" class="st8" d="M248.91,245.66s-8.83,1.14-16.54,0c-7.71-1.14-21.12-6.57-41.39-5.99-20.27.57-50.24,7.71-55.66,7.71s-2.85-3.79,13.7-7.75c16.56-3.95,56.52-5.1,59.94-3.95s17.7,4.28,17.7,4.28c0,0-12.56-10.56-23.69-11.42-11.13-.86-41.1-.57-49.38,0-8.28.57-15.98,3.71-17.41,4s2.28-6.28,8.28-7.14c5.99-.86,54.23-1.43,59.37,0,5.14,1.43,33.59,12.56,33.59,12.56,0,0-7.33-6.28-16.46-11.7s-20.27-7.99-33.11-8.28c-12.84-.29-43.39,0-46.24,0s-.86-3.71,11.7-4c12.56-.29,36.25-1.43,43.67,0,7.42,1.43,21.07,5.14,27.09,9.42,6.02,4.28,16.3,11.42,16.3,11.42,0,0-9.71-15.39-21.98-21.54-12.27-6.15-35.68-12.62-68.79-14.1-13.42-3.83,23.98-4.33,28.54-3.76,4.57.57,26.83,3.41,40.53,13.27,13.7,9.85,23.98,21.56,27.69,27.55,3.71,5.99,4.89,9.19,2.55,9.42Z" fill="#21409a"/>
          <path id="pageright" class="st8" d="M290.6,240.81c-7.95,1.66-17.41,5.42-22.26,5.42s-13.17.29-14.58,0-.26-5.99,4.02-8.56c4.28-2.57,17.41-17.41,32.83-21.41s51.95-5,58.8-3.93c6.85,1.07,10.85,1.36,12.56,1.93s3.43,5.99-25.4,3.43c-28.83-2.57-33.4-2.51-45.67,3.74-12.27,6.25-21.24,10.96-21.24,10.96,0,0,33.23-10.93,47.79-10.96,14.56-.03,41.3,4.82,45.34,6.53s4.04,5.71-8.52,3.71-19.41-3.14-33.68-3.14-26.1,3.78-34.25,5.42c-25.55,5.14,16.56,1.14,26.26,1.14s35.39,1.43,42.53,4.28c7.14,2.85,11.7,4,13.42,5.14s-9.42,2.28-15.13.29c-5.71-2-16.84-3.71-35.68-3.71s-24.33-.87-27.12-.29Z" fill="#21409a"/>
        </g>
      </g>
    </g>
  </g>
  <g id="option5_stroek_outlined">
    <g id="logo_copy_5">
      <g>
        <g>
          <g>
            <path class="st6" d="M50.59,305.55l.23-7.01c0-3.08-.31-5.09-.92-6.06-.61-.97-1.64-1.45-3.09-1.45-.84,0-1.26-.18-1.26-.53,0-.32.25-.48.76-.48l7.35.25,6.24-.13c.49,0,.73.15.73.45,0,.27-.16.4-.48.4-1.28,0-2.27.19-2.97.55-.71.37-1.17,1-1.4,1.89-.23.89-.41,3.43-.55,7.62-.14,4.19-.21,7.24-.21,9.14l-.08,6.2c0,1.93.19,3.19.55,3.77.37.58.92,1.03,1.65,1.36.73.33,1.48.53,2.26.62.54.07.81.23.81.48,0,.27-.23.4-.68.4l-7.78-.2-5.07.18c-.59,0-.88-.15-.88-.45,0-.25.21-.39.63-.4,1.34-.08,2.22-.26,2.63-.53.41-.27.74-.78,1-1.54.25-.76.4-2.03.43-3.83l.13-9.15c-1.44-.1-2.91-.15-4.4-.15-6.49,0-10.61.12-12.36.35-.13,3.22-.2,5.87-.2,7.95,0,2.33.05,3.77.15,4.3.1.54.42,1.04.94,1.5.53.46,1.26.78,2.18.97.57.12.86.3.86.55,0,.3-.19.45-.55.45-.12,0-.29-.02-.5-.05-.91-.1-2.79-.15-5.65-.15-3.11,0-5.02.07-5.72.22-.15.02-.3.03-.45.03-.39,0-.58-.13-.58-.39,0-.29.26-.47.78-.54,1.29-.15,2.22-.51,2.77-1.08.55-.57.94-2.71,1.15-6.42.21-3.71.31-8.21.31-13.51,0-4.31-.2-7.03-.6-8.15-.4-1.12-1.39-1.75-2.95-1.86-.35-.03-.53-.17-.53-.41,0-.35.36-.52,1.08-.52l10.16-.15c.72,0,1.15.02,1.3.06.14.04.21.18.21.41,0,.26-.22.42-.66.47-1.66.17-2.68.47-3.04.91-.36.44-.54,3.17-.54,8.18,0,.52.03,2.35.08,5.48,1.71.13,3.72.2,6.04.2,2.99,0,6.56-.07,10.72-.2Z" fill="#e2881b"/>
            <path class="st8" d="M24.88,323.34c-.75,0-.83-.45-.83-.64,0-.3.17-.68,1-.79,1.23-.14,2.11-.48,2.63-1.01.35-.36.82-1.74,1.08-6.26.21-3.69.31-8.23.31-13.5,0-4.26-.2-6.98-.59-8.07-.37-1.03-1.26-1.59-2.73-1.7-.69-.07-.76-.49-.76-.66,0-.35.23-.77,1.33-.77l10.15-.15c.99,0,1.25.04,1.37.07.15.04.4.18.4.65,0,.23-.11.63-.88.71-1.98.2-2.65.56-2.87.82-.15.18-.48,1.31-.48,8.02,0,.5.02,2.22.07,5.25,1.65.12,3.6.18,5.79.18,2.91,0,6.44-.07,10.48-.19l.22-6.77c0-3-.3-5-.88-5.92-.57-.9-1.51-1.33-2.88-1.33-1,0-1.51-.26-1.51-.78,0-.27.13-.73,1.01-.73l7.36.25,6.22-.13c.86,0,.99.44.99.7,0,.41-.27.65-.73.65-1.23,0-2.19.18-2.86.53-.65.34-1.06.9-1.27,1.73-.22.87-.41,3.42-.55,7.57-.14,4.17-.21,7.24-.21,9.13l-.08,6.2c0,1.87.17,3.09.52,3.63.34.54.86.96,1.54,1.27.7.32,1.44.52,2.18.6.68.09,1.03.33,1.03.73,0,.24-.12.65-.93.65l-7.78-.2-5.06.18h0c-.95,0-1.14-.38-1.14-.7,0-.23.11-.62.87-.65,1.61-.1,2.25-.32,2.51-.49.36-.24.66-.71.9-1.41.24-.73.38-1.99.42-3.76l.12-8.91c-1.36-.09-2.76-.13-4.15-.13-6.2,0-10.27.11-12.12.32-.13,3.1-.19,5.7-.19,7.73,0,2.31.05,3.74.15,4.26.09.48.38.93.86,1.35.49.43,1.19.74,2.06.91.26.05,1.06.22,1.06.8,0,.44-.3.7-.8.7-.13,0-.31-.02-.54-.05-.89-.1-2.78-.15-5.61-.15-3.08,0-4.99.07-5.67.22-.18.02-.34.03-.51.03ZM36.47,290.3l-10.15.15c-.25,0-.84.03-.84.27,0,.04,0,.14.3.17,1.66.12,2.72.81,3.16,2.03.42,1.16.62,3.86.62,8.24,0,5.28-.11,9.83-.32,13.53-.29,5.07-.83,6.18-1.22,6.58-.59.61-1.58,1-2.92,1.16-.25.03-.56.11-.56.3,0,.04,0,.14.33.14.14,0,.28,0,.42-.03.71-.15,2.59-.23,5.75-.23,2.85,0,4.76.05,5.67.15.81.12.78-.03.78-.16,0-.06-.14-.2-.66-.31-.96-.19-1.73-.54-2.29-1.03-.57-.5-.92-1.05-1.03-1.64-.1-.56-.16-1.98-.16-4.35,0-2.08.07-4.76.2-7.96v-.21s.22-.03.22-.03c1.75-.24,5.92-.35,12.39-.35,1.49,0,2.97.05,4.42.15l.24.02-.13,9.39c-.03,1.84-.18,3.12-.44,3.91-.27.81-.64,1.37-1.1,1.67-.45.3-1.35.48-2.75.57-.18,0-.4.04-.4.15,0,.18.44.2.63.2l5.07-.18,7.79.2c.19,0,.43-.03.43-.15,0-.08-.18-.18-.59-.23-.79-.09-1.57-.3-2.33-.64-.77-.35-1.37-.84-1.76-1.46-.4-.62-.59-1.9-.59-3.9l.08-6.2c0-1.89.07-4.97.21-9.14.14-4.25.33-6.76.56-7.68.24-.96.76-1.65,1.52-2.05.74-.39,1.78-.58,3.09-.58.23,0,.23-.07.23-.15,0-.06,0-.2-.48-.2l-6.23.13-7.36-.25c-.5,0-.5.16-.5.23,0,.17.39.28,1.01.28,1.53,0,2.64.53,3.3,1.57.65,1.02.96,3.04.96,6.2l-.23,7.25h-.23c-4.14.14-7.75.21-10.73.21-2.31,0-4.35-.07-6.06-.2l-.23-.02v-.23c-.05-3.17-.08-4.96-.08-5.48,0-6.75.32-8,.6-8.34.41-.49,1.46-.82,3.2-1,.2-.02.43-.08.43-.22,0-.13-.03-.16-.03-.16-.06-.02-.29-.05-1.23-.05Z" fill="#21409a"/>
          </g>
          <g>
            <path class="st6" d="M78.65,289.19h1.16c1.88,3.85,4.47,10.43,7.77,19.73,2.13,5.97,3.59,9.62,4.38,10.98s2.06,2.1,3.82,2.26c.56.05.83.24.83.55,0,.24-.14.35-.43.35l-.35-.03c-1.55-.13-3.51-.2-5.9-.2-3.66,0-6.02.06-7.06.18-.52,0-.78-.15-.78-.45,0-.22.19-.35.58-.4,1.43-.13,2.42-.38,2.96-.73.55-.35.82-.91.82-1.66s-.51-2.53-1.54-5.42l-1.48-4.33c-.87,0-4.78.05-11.72.15-1.75,4.65-2.63,7.59-2.63,8.81,0,1.03.43,1.79,1.3,2.29.87.5,1.72.77,2.56.82.62.05.93.24.93.56,0,.13-.1.25-.3.37-2.69-.12-4.31-.18-4.86-.18-2.82,0-4.72.03-5.7.1-.54,0-.81-.15-.81-.45,0-.27.23-.44.71-.5,1.93-.25,3.41-1.56,4.44-3.93,1.02-2.37,2.62-6.63,4.79-12.78,1.98-5.59,4.15-10.96,6.51-16.08ZM77.64,294.69c-1.56,3.19-3.39,7.83-5.48,13.91,1.73-.08,2.97-.13,3.73-.13l7.08.13c-.62-1.75-1.49-4.07-2.62-6.96-1.38-3.44-2.28-5.76-2.72-6.96Z" fill="#e2881b"/>
            <path class="st8" d="M96.18,323.32l-.37-.03c-1.54-.13-3.52-.2-5.88-.2-3.64,0-6,.06-7.03.17h0c-.92,0-1.05-.44-1.05-.7,0-.25.14-.56.8-.65,1.39-.13,2.35-.36,2.86-.69.47-.31.7-.78.7-1.45s-.51-2.49-1.52-5.34l-1.43-4.17c-1.12,0-4.85.05-11.37.15-1.69,4.51-2.55,7.39-2.55,8.56,0,.94.38,1.62,1.17,2.08.83.48,1.65.74,2.45.79.97.08,1.17.49,1.17.81,0,.23-.14.42-.43.58l-.06.04h-.07c-2.67-.12-4.3-.18-4.85-.18-2.81,0-4.72.03-5.68.1h0c-.93,0-1.07-.44-1.07-.7,0-.28.16-.64.92-.75,1.83-.24,3.26-1.51,4.24-3.78,1.02-2.36,2.63-6.65,4.79-12.76,1.98-5.58,4.17-11,6.52-16.1l.07-.15h1.48l.07.14c1.87,3.84,4.49,10.49,7.78,19.76,2.11,5.92,3.58,9.6,4.36,10.93.75,1.29,1.94,1.99,3.62,2.13.88.08,1.06.48,1.06.8,0,.38-.25.6-.68.6ZM89.93,322.59c2.38,0,4.37.07,5.92.2l.35.03c.16,0,.16-.04.16-.1,0-.17-.2-.27-.61-.31-1.83-.16-3.18-.96-4.01-2.38-.8-1.36-2.28-5.07-4.4-11.02-3.24-9.15-5.83-15.73-7.69-19.57h-.85c-2.31,5.05-4.48,10.4-6.43,15.91-2.16,6.12-3.77,10.42-4.8,12.79-1.06,2.44-2.62,3.82-4.63,4.08-.18.03-.49.09-.49.26s.3.2.56.2c.97-.07,2.84-.1,5.7-.1.56,0,2.17.06,4.8.17.1-.06.12-.11.12-.12,0-.23-.44-.29-.7-.32-.87-.05-1.77-.34-2.66-.86-.94-.54-1.42-1.39-1.42-2.51,0-1.26.86-4.17,2.64-8.89l.06-.16h.17c7.03-.1,10.86-.15,11.72-.15h.18l1.54,4.5c1.04,2.94,1.55,4.74,1.55,5.5,0,.84-.31,1.47-.93,1.87-.59.38-1.59.63-3.07.77-.16.02-.35.07-.35.15,0,.14.18.2.53.2,1.03-.12,3.35-.18,7.06-.18ZM71.81,308.87l.12-.35c2.08-6.06,3.93-10.75,5.49-13.94l.26-.53.2.55c.44,1.19,1.35,3.53,2.71,6.95,1.12,2.87,2,5.22,2.62,6.96l.12.34-7.44-.13c-.74,0-2,.04-3.71.13l-.37.02ZM75.9,308.23l6.73.12c-.61-1.7-1.45-3.92-2.49-6.61-1.18-2.96-2.02-5.11-2.51-6.41-1.47,3.09-3.18,7.46-5.09,13.01,1.54-.07,2.67-.11,3.37-.11Z" fill="#21409a"/>
          </g>
          <g>
            <path class="st6" d="M118.49,305.94c2.33,1.01,3.96,2.07,4.87,3.17.91,1.1,1.59,2.81,2.02,5.11.57,3.02,1.35,5.06,2.35,6.1,1,1.04,2.32,1.6,3.94,1.66.45.03.68.2.68.49s-.26.44-.78.44c-4.7,0-7.56-.15-8.56-.47-1-.31-1.74-2.03-2.23-5.15-.45-3.04-.93-5.26-1.42-6.67-.5-1.4-1.29-2.48-2.37-3.23-1.08-.75-2.78-1.12-5.08-1.12-.87,0-1.87.09-2.97.28-.08,1.06-.13,2.16-.13,3.3,0,4.31.06,7.1.18,8.37.12,1.27.47,2.19,1.07,2.77.6.58,1.59.88,2.99.92.6.02.91.16.91.44,0,.33-.37.49-1.11.49h-12.48c-.72,0-1.08-.16-1.08-.49,0-.29.29-.44.86-.44,1.28,0,2.16-.19,2.66-.58s.89-.99,1.17-1.8c.29-.81.43-2.29.43-4.42l-.05-5.14.02-7.83c0-4-.09-6.64-.26-7.93-.18-1.29-.49-2.16-.94-2.61s-1.5-.79-3.15-1.04c-.35-.05-.53-.19-.53-.43,0-.27.35-.4,1.06-.4l14.92-.33c4.12,0,7.1.79,8.96,2.37,1.86,1.58,2.78,3.51,2.78,5.79,0,1.44-.37,2.76-1.12,3.95-.75,1.19-1.63,2.06-2.66,2.59-1.03.54-2.67,1.15-4.94,1.84ZM108.93,305.3c3.23-.07,5.65-.29,7.26-.68,1.61-.39,2.99-1.24,4.12-2.55s1.7-2.86,1.7-4.66c0-1.9-.63-3.55-1.89-4.97-1.26-1.41-3.28-2.12-6.05-2.12-1.51,0-3.18.2-5.02.61-.2,4.62-.3,8.3-.3,11.04,0,.94.06,2.05.18,3.33Z" fill="#e2881b"/>
            <path class="st8" d="M131.57,323.17c-4.78,0-7.6-.16-8.63-.48-1.11-.34-1.9-2.1-2.4-5.35-.45-3.01-.92-5.24-1.41-6.62-.48-1.35-1.24-2.39-2.28-3.1-1.04-.71-2.7-1.08-4.94-1.08-.81,0-1.73.08-2.74.24-.07.99-.11,2.02-.11,3.08,0,4.29.06,7.09.18,8.34.11,1.2.45,2.08,1,2.61.55.53,1.5.82,2.82.85.76.02,1.15.25,1.15.69,0,.49-.46.74-1.36.74h-12.48c-.88,0-1.33-.25-1.33-.74,0-.32.19-.69,1.11-.69,1.21,0,2.06-.18,2.51-.53.45-.35.82-.92,1.09-1.69.27-.78.41-2.24.41-4.34l-.05-5.13.02-7.84c0-3.97-.09-6.62-.26-7.9-.17-1.23-.46-2.06-.87-2.46-.41-.41-1.43-.73-3.01-.98-.65-.09-.74-.46-.74-.68,0-.65.98-.65,1.31-.65l14.92-.33c4.16,0,7.23.82,9.13,2.43,1.91,1.62,2.87,3.63,2.87,5.98,0,1.49-.39,2.86-1.16,4.09-.77,1.22-1.69,2.13-2.75,2.68-.93.49-2.4,1.05-4.35,1.66,2.04.94,3.5,1.94,4.35,2.97.94,1.13,1.63,2.89,2.07,5.22.55,2.96,1.32,4.97,2.29,5.97.95.99,2.22,1.52,3.77,1.59.8.06.92.49.92.74s-.13.69-1.03.69ZM111.91,306.03c2.34,0,4.1.39,5.22,1.17,1.12.78,1.95,1.9,2.46,3.35.5,1.41.98,3.67,1.44,6.71.58,3.75,1.44,4.76,2.06,4.95.97.3,3.82.45,8.48.45.24,0,.53-.03.53-.19,0-.06,0-.21-.45-.24-1.67-.07-3.06-.65-4.1-1.74-1.05-1.09-1.84-3.13-2.42-6.23-.42-2.25-1.08-3.93-1.97-4.99-.88-1.07-2.49-2.11-4.78-3.1l-.62-.27.65-.2c2.24-.68,3.89-1.29,4.9-1.82.98-.51,1.84-1.36,2.56-2.51.72-1.15,1.08-2.43,1.08-3.82,0-2.2-.91-4.08-2.7-5.6-1.8-1.53-4.76-2.31-8.8-2.31l-14.92.33c-.67,0-.81.13-.81.15,0,.04,0,.14.31.18,1.72.26,2.79.63,3.29,1.11.5.49.83,1.39,1.02,2.75.18,1.3.27,3.98.27,7.97l-.02,7.83.05,5.13c0,2.18-.14,3.66-.44,4.51-.3.86-.72,1.5-1.25,1.92-.55.42-1.47.63-2.81.63-.14,0-.61.01-.61.19s.43.24.83.24h12.48c.53,0,.86-.09.86-.24,0-.08-.21-.18-.66-.19-1.45-.03-2.51-.37-3.15-.99-.64-.62-1.02-1.6-1.15-2.92-.12-1.26-.18-4.09-.18-8.39,0-1.14.04-2.26.13-3.32l.02-.2.19-.03c1.12-.19,2.13-.28,3.02-.28ZM108.71,305.55l-.02-.23c-.12-1.28-.18-2.4-.18-3.35,0-2.73.1-6.45.3-11.05v-.19s.2-.04.2-.04c1.84-.41,3.55-.61,5.07-.61,2.83,0,4.93.74,6.24,2.2,1.3,1.45,1.95,3.18,1.95,5.13,0,1.85-.59,3.47-1.76,4.83-1.17,1.35-2.6,2.23-4.25,2.62-1.62.39-4.08.62-7.31.69h-.23ZM109.3,291.14c-.19,4.5-.29,8.15-.29,10.84,0,.87.05,1.91.15,3.07,3.08-.07,5.42-.3,6.97-.67,1.55-.37,2.9-1.2,3.99-2.47,1.09-1.26,1.64-2.77,1.64-4.5,0-1.83-.61-3.44-1.83-4.8-1.21-1.35-3.18-2.03-5.86-2.03-1.43,0-3.04.19-4.77.56Z" fill="#21409a"/>
          </g>
          <g>
            <path class="st6" d="M144.4,289.87l5.19-.1c6.57,0,11.53,1.6,14.9,4.79,3.36,3.19,5.04,7.22,5.04,12.07,0,3.44-.81,6.44-2.42,8.99-1.61,2.54-3.63,4.46-6.05,5.76s-5.65,1.94-9.68,1.94c-.91,0-2.06-.05-3.45-.15-2.49-.2-3.88-.3-4.18-.3-5.51,0-8.75.06-9.73.18-.55,0-.83-.14-.83-.42,0-.2.1-.33.3-.39.2-.07.82-.16,1.87-.29,1.34-.19,2.29-.72,2.84-1.61.55-.89.89-3.67,1.02-8.32l.4-13.34c0-1.55-.1-3.04-.31-4.48-.21-1.44-.54-2.36-.98-2.78-.45-.41-1.16-.69-2.13-.84-.71-.1-1.06-.29-1.06-.58,0-.35.18-.53.53-.53s1.37.07,3.09.21c1.72.14,3.61.21,5.66.21ZM143.51,314.22c0,2.22.15,3.8.44,4.75.29.95.92,1.73,1.89,2.34.97.61,2.52.92,4.65.92,3.06,0,5.54-.72,7.44-2.17s3.38-3.37,4.45-5.77c1.07-2.4,1.6-4.96,1.6-7.66,0-4-1.22-7.62-3.65-10.86-2.44-3.24-6.23-4.86-11.37-4.86-2.29,0-3.62.08-4,.23s-.57.6-.57,1.34c0,.66-.06,1.82-.18,3.5-.17,2.45-.28,4.37-.33,5.75l-.23,6.93c-.1,3.24-.15,5.1-.15,5.57Z" fill="#e2881b"/>
            <path class="st8" d="M151.38,323.57c-.91,0-2.08-.05-3.47-.15-3.07-.25-3.96-.3-4.17-.3-5.48,0-8.74.06-9.7.17h0c-.92,0-1.1-.36-1.1-.67s.17-.53.48-.63c.22-.07.84-.17,1.91-.3,1.26-.17,2.15-.68,2.65-1.5.52-.85.85-3.61.98-8.2l.4-13.34c0-1.52-.1-3.01-.31-4.43-.25-1.71-.63-2.37-.91-2.63-.41-.38-1.08-.64-2-.78-.31-.04-1.27-.18-1.27-.83,0-.49.29-.78.78-.78.34,0,1.33.07,3.11.21,1.7.14,3.6.21,5.64.21l5.19-.1c6.61,0,11.68,1.63,15.07,4.86,3.4,3.23,5.12,7.35,5.12,12.25,0,3.48-.83,6.54-2.46,9.12-1.63,2.57-3.69,4.54-6.14,5.85-2.44,1.31-5.74,1.97-9.8,1.97ZM143.74,322.62c.31,0,1.73.1,4.2.3,1.38.1,2.53.15,3.43.15,3.97,0,7.19-.64,9.56-1.91,2.37-1.27,4.37-3.18,5.96-5.67,1.58-2.49,2.38-5.47,2.38-8.85,0-4.76-1.67-8.76-4.96-11.89-3.3-3.13-8.25-4.72-14.72-4.72l-5.19.1c-2.05,0-3.96-.07-5.68-.22-1.74-.14-2.75-.21-3.07-.21-.21,0-.28.07-.28.28,0,.08.18.24.84.33,1.04.16,1.78.46,2.26.91.49.46.84,1.41,1.06,2.92.21,1.44.32,2.96.32,4.51l-.4,13.35c-.14,4.75-.48,7.51-1.06,8.45-.58.95-1.6,1.54-3.01,1.73-1.27.16-1.69.24-1.82.29-.12.04-.13.09-.13.15,0,.16.48.17.58.17.96-.12,4.16-.18,9.73-.18ZM150.49,322.49c-2.17,0-3.78-.32-4.78-.96-1.01-.64-1.69-1.48-2-2.48-.3-.98-.45-2.56-.45-4.83,0-.48.05-2.35.15-5.58l.23-6.93c.05-1.38.16-3.32.33-5.75.12-1.67.18-2.84.18-3.49,0-.85.24-1.38.72-1.57.26-.1.97-.24,4.09-.24,5.2,0,9.09,1.67,11.57,4.96,2.46,3.27,3.71,6.98,3.71,11.01,0,2.73-.55,5.34-1.62,7.76-1.08,2.43-2.6,4.41-4.53,5.87-1.93,1.47-4.49,2.22-7.59,2.22ZM148.96,291.16c-2.79,0-3.66.11-3.9.21-.27.11-.41.48-.41,1.1,0,.66-.06,1.84-.18,3.52-.17,2.43-.28,4.36-.33,5.74l-.23,6.93c-.1,3.22-.15,5.09-.15,5.56,0,2.18.14,3.76.43,4.68.27.89.88,1.63,1.79,2.21.92.58,2.44.88,4.52.88,2.99,0,5.44-.71,7.28-2.12,1.86-1.41,3.33-3.32,4.37-5.67,1.05-2.36,1.58-4.9,1.58-7.56,0-3.92-1.21-7.53-3.6-10.71-2.38-3.16-6.13-4.76-11.17-4.76Z" fill="#21409a"/>
          </g>
          <g>
            <path class="st6" d="M200.52,290.15c.49,1.88.97,4.52,1.44,7.91-.08.13-.17.2-.27.2-.11,0-.24-.07-.37-.2-1.16-1.87-2.27-3.29-3.33-4.26-1.06-.97-2.12-1.67-3.19-2.08-1.07-.41-2.9-.62-5.51-.62-2.46,0-4.4.14-5.83.43-.13.17-.2.48-.2.93,0,.12-.02.33-.05.63-.17,1.34-.25,4.98-.25,10.92,0,.25.02.6.05,1.06,1.28.05,2.15.08,2.62.08,2.12,0,3.65-.32,4.6-.95.95-.63,1.78-2,2.48-4.09.12-.35.28-.53.5-.53.32,0,.47.24.47.73l-.1,1.01c-.13,1.33-.2,2.7-.2,4.12,0,2.29.04,4.35.13,6.19,0,.57-.15.86-.46.86-.23,0-.38-.2-.46-.61-.35-1.98-1.1-3.41-2.23-4.28-1.13-.87-3.58-1.31-7.36-1.31-.05,1.23-.08,3.21-.08,5.95,0,3.55.13,5.8.38,6.75.25.96.86,1.72,1.82,2.28.96.56,2.58.84,4.87.84,6.54,0,10.76-2.25,12.66-6.75.23-.55.47-.83.72-.83.27,0,.4.19.4.55,0,.2-.04.42-.13.66-.1.32-.34,1.51-.73,3.58-.08.44-.4,1.75-.96,3.93l-10.56-.03c-1.51,0-3.73-.06-6.67-.19s-5.53-.19-7.79-.2c-2.26,0-3.44-.05-3.54-.14-.1-.08-.15-.18-.15-.28,0-.34.28-.5.83-.5,1.87,0,3.09-.5,3.68-1.49.59-.99.88-3.4.88-7.23l-.02-5.16.08-4.84c0-.97-.06-2.82-.16-5.53-.11-2.71-.21-4.26-.3-4.65-.09-.39-.35-.77-.78-1.15-.43-.38-1.37-.76-2.84-1.15-.44-.12-.66-.3-.66-.55,0-.3.29-.45.88-.45l5.14.28c1.81.08,6.28.13,13.38.13,4.67,0,7.06,0,7.16.03Z" fill="#e2881b"/>
            <path class="st8" d="M202.16,323.49l-10.76-.03c-1.52,0-3.76-.06-6.68-.19-2.92-.12-5.53-.19-7.78-.2-3.48-.01-3.59-.11-3.7-.2-.2-.17-.24-.35-.24-.47,0-.28.14-.75,1.08-.75,1.76,0,2.93-.46,3.47-1.36.56-.95.85-3.34.85-7.1l-.02-5.16.08-4.84c0-.96-.05-2.77-.16-5.51-.13-3.34-.23-4.34-.3-4.6-.08-.33-.32-.67-.7-1.02-.4-.35-1.32-.72-2.73-1.09-.7-.19-.84-.54-.84-.79,0-.32.2-.7,1.13-.7l5.16.28c1.8.08,6.3.13,13.37.13s7.14.02,7.2.03l.16.03.04.16c.49,1.88.97,4.56,1.44,7.94v.09s-.03.08-.03.08c-.16.27-.35.32-.48.32-.18,0-.37-.09-.55-.27-1.18-1.88-2.28-3.3-3.32-4.25-1.03-.95-2.08-1.63-3.11-2.03-1.03-.4-2.86-.6-5.42-.6-2.37,0-4.28.13-5.67.4-.05.1-.11.31-.11.71,0,.12-.02.34-.05.66-.17,1.33-.25,4.99-.25,10.89,0,.2.01.48.03.82,1.17.04,1.95.07,2.39.07,2.06,0,3.56-.31,4.46-.91.9-.6,1.7-1.93,2.39-3.96.19-.58.51-.7.74-.7.27,0,.72.13.72.98l-.1,1.04c-.13,1.31-.2,2.69-.2,4.09,0,2.29.04,4.36.13,6.17,0,.93-.39,1.12-.71,1.12-.25,0-.57-.14-.71-.81-.34-1.92-1.06-3.31-2.13-4.13-1.06-.82-3.4-1.24-6.97-1.26-.04,1.23-.07,3.15-.07,5.7,0,3.51.12,5.76.37,6.69.24.9.79,1.6,1.7,2.13.91.54,2.51.81,4.74.81,6.4,0,10.58-2.22,12.43-6.6.28-.66.59-.98.95-.98.2,0,.65.08.65.8,0,.23-.05.48-.14.74-.09.3-.34,1.5-.72,3.54-.09.44-.4,1.73-.96,3.95l-.05.19ZM174.83,289.97c-.18,0-.62.02-.62.2,0,.16.29.27.47.31,1.51.4,2.47.79,2.94,1.2.47.41.75.84.86,1.27.1.41.2,1.94.31,4.7.11,2.75.16,4.56.16,5.54l-.08,4.84.02,5.16c0,3.91-.3,6.32-.92,7.36-.63,1.07-1.94,1.61-3.9,1.61-.58,0-.58.18-.58.25,0,.03.04.07.06.08.04,0,.56.07,3.38.08,2.25,0,4.88.08,7.8.2,2.91.12,5.15.19,6.66.19l10.37.03c.52-2.06.83-3.31.91-3.73.39-2.09.63-3.27.74-3.61.08-.22.11-.41.11-.58,0-.3-.09-.3-.15-.3-.02,0-.22.02-.49.68-1.93,4.58-6.27,6.91-12.89,6.91-2.35,0-3.99-.29-4.99-.88-1.01-.59-1.66-1.41-1.93-2.43-.26-.99-.39-3.22-.39-6.82,0-2.73.03-4.73.08-5.96v-.24h.25c3.87,0,6.33.45,7.51,1.36,1.17.91,1.95,2.4,2.32,4.44.02.09.09.4.22.4.18,0,.21-.38.21-.61-.08-1.81-.13-3.89-.13-6.19,0-1.42.07-2.81.2-4.14l.1-1.01c0-.46-.16-.46-.23-.46-.13,0-.22.23-.26.36-.73,2.17-1.58,3.55-2.58,4.22-.99.66-2.58.99-4.74.99-.47,0-1.33-.02-2.63-.08h-.22s-.02-.23-.02-.23c-.03-.46-.05-.82-.05-1.08,0-5.92.09-9.6.25-10.95.03-.29.05-.49.05-.6,0-.52.08-.87.26-1.09l.06-.07.09-.02c1.43-.29,3.41-.43,5.88-.43,2.66,0,4.5.21,5.6.63,1.09.42,2.19,1.14,3.27,2.13,1.07.99,2.21,2.44,3.37,4.31.08.07.14.08.16.08,0,0,0,0,.01-.01-.45-3.21-.91-5.77-1.37-7.61-.46,0-2.05-.02-6.96-.02-7.08,0-11.58-.04-13.4-.13l-5.14-.28Z" fill="#21409a"/>
          </g>
          <g>
            <path class="st6" d="M234.4,290.15c.49,1.88.97,4.52,1.44,7.91-.08.13-.17.2-.27.2-.11,0-.24-.07-.37-.2-1.16-1.87-2.27-3.29-3.33-4.26-1.06-.97-2.12-1.67-3.19-2.08-1.07-.41-2.9-.62-5.51-.62-2.45,0-4.4.14-5.83.43-.13.17-.2.48-.2.93,0,.12-.02.33-.05.63-.17,1.34-.25,4.98-.25,10.92,0,.25.02.6.05,1.06,1.28.05,2.15.08,2.62.08,2.12,0,3.65-.32,4.6-.95s1.78-2,2.48-4.09c.12-.35.28-.53.5-.53.32,0,.48.24.48.73l-.1,1.01c-.13,1.33-.2,2.7-.2,4.12,0,2.29.04,4.35.13,6.19,0,.57-.15.86-.46.86-.23,0-.38-.2-.46-.61-.35-1.98-1.1-3.41-2.23-4.28-1.13-.87-3.58-1.31-7.36-1.31-.05,1.23-.08,3.21-.08,5.95,0,3.55.13,5.8.38,6.75s.86,1.72,1.82,2.28c.96.56,2.58.84,4.87.84,6.54,0,10.76-2.25,12.66-6.75.23-.55.47-.83.72-.83.27,0,.4.19.4.55,0,.2-.04.42-.13.66-.1.32-.34,1.51-.73,3.58-.08.44-.4,1.75-.96,3.93l-10.56-.03c-1.51,0-3.73-.06-6.67-.19-2.93-.13-5.53-.19-7.79-.2-2.26,0-3.44-.05-3.54-.14-.1-.08-.15-.18-.15-.28,0-.34.28-.5.83-.5,1.87,0,3.09-.5,3.68-1.49.59-.99.88-3.4.88-7.23l-.03-5.16.08-4.84c0-.97-.05-2.82-.16-5.53-.11-2.71-.21-4.26-.3-4.65-.09-.39-.35-.77-.78-1.15-.43-.38-1.37-.76-2.84-1.15-.44-.12-.66-.3-.66-.55,0-.3.29-.45.88-.45l5.14.28c1.81.08,6.28.13,13.38.13,4.67,0,7.06,0,7.16.03Z" fill="#e2881b"/>
            <path class="st8" d="M236.03,323.49l-10.76-.03c-1.52,0-3.76-.06-6.68-.19-2.92-.12-5.53-.19-7.78-.2-3.48-.01-3.59-.11-3.7-.2-.2-.17-.24-.35-.24-.47,0-.28.14-.75,1.08-.75,1.76,0,2.93-.46,3.46-1.36.56-.95.85-3.34.85-7.1l-.03-5.16.08-4.84c0-.97-.05-2.77-.16-5.51-.11-2.68-.21-4.23-.3-4.6-.08-.33-.32-.67-.7-1.02-.4-.35-1.32-.72-2.73-1.09-.7-.19-.84-.54-.84-.79,0-.32.2-.7,1.13-.7l5.16.28c1.8.08,6.3.13,13.37.13s7.14.02,7.2.03l.16.03.04.16c.49,1.88.97,4.55,1.44,7.94v.09s-.03.08-.03.08c-.16.27-.35.32-.48.32-.18,0-.37-.09-.55-.28-1.18-1.88-2.28-3.3-3.32-4.25-1.03-.95-2.08-1.63-3.11-2.03-1.03-.4-2.86-.6-5.42-.6-2.37,0-4.28.13-5.67.4-.05.1-.11.31-.11.71,0,.12-.02.34-.05.66-.17,1.33-.25,4.99-.25,10.89,0,.2.01.48.03.82,1.17.04,1.95.07,2.39.07,2.06,0,3.56-.31,4.46-.91.9-.6,1.7-1.93,2.39-3.96.19-.58.51-.7.74-.7.27,0,.73.13.73.98l-.1,1.04c-.13,1.31-.2,2.69-.2,4.09,0,2.27.04,4.35.13,6.17,0,.93-.39,1.12-.71,1.12-.25,0-.57-.14-.71-.81-.34-1.92-1.06-3.31-2.13-4.13-1.06-.82-3.4-1.24-6.97-1.26-.04,1.23-.07,3.15-.07,5.7,0,3.51.12,5.76.37,6.69.24.9.79,1.6,1.7,2.13.91.54,2.51.81,4.74.81,6.4,0,10.58-2.22,12.43-6.6.18-.42.47-.98.95-.98.2,0,.65.08.65.8,0,.23-.05.48-.14.74-.07.21-.25,1-.72,3.54-.09.46-.41,1.79-.96,3.95l-.05.19ZM208.7,289.97c-.18,0-.62.02-.62.2,0,.16.29.27.47.31,1.51.4,2.47.79,2.94,1.2.47.41.75.84.86,1.27.1.41.2,1.94.31,4.7.11,2.75.16,4.56.16,5.54l-.08,4.84.03,5.16c0,3.91-.3,6.32-.92,7.36-.63,1.07-1.94,1.61-3.89,1.61-.58,0-.58.18-.58.25,0,.03.04.07.06.08.04,0,.56.07,3.38.08,2.25,0,4.88.08,7.8.2,2.91.12,5.15.19,6.66.19l10.37.03c.51-2.02.82-3.3.91-3.73.38-2.06.63-3.27.74-3.61.08-.22.11-.41.11-.58,0-.3-.09-.3-.15-.3-.1,0-.28.18-.49.68-1.93,4.58-6.27,6.91-12.89,6.91-2.35,0-3.99-.29-4.99-.88-1.01-.59-1.66-1.41-1.93-2.43-.26-.99-.39-3.22-.39-6.82,0-2.73.03-4.73.08-5.96v-.24h.25c3.87,0,6.33.45,7.51,1.36,1.17.91,1.95,2.4,2.32,4.44.02.09.09.4.22.4.18,0,.21-.38.21-.61-.08-1.82-.13-3.9-.13-6.19,0-1.42.07-2.82.2-4.14l.1-1.01c0-.46-.16-.46-.23-.46-.13,0-.22.23-.26.36-.73,2.17-1.58,3.55-2.58,4.22-.99.66-2.58.99-4.74.99-.47,0-1.33-.02-2.63-.08h-.22s-.02-.23-.02-.23c-.04-.46-.05-.82-.05-1.08,0-5.92.08-9.6.25-10.95.03-.29.05-.49.05-.6,0-.52.08-.87.26-1.09l.06-.07.09-.02c1.43-.29,3.41-.43,5.87-.43,2.66,0,4.5.21,5.6.63,1.09.42,2.19,1.14,3.27,2.13,1.07.99,2.21,2.44,3.37,4.31.08.07.14.08.16.08,0,0,0,0,.01-.01-.45-3.22-.91-5.78-1.37-7.61-.46,0-2.05-.02-6.96-.02-7.08,0-11.58-.04-13.39-.13l-5.14-.28Z" fill="#21409a"/>
          </g>
          <g>
            <path class="st6" d="M280.47,291.94c.92-.82,1.46-1.38,1.59-1.66.17-.4.41-.61.73-.61.34,0,.52.3.55.91l.55,8.8c0,.5-.02.81-.06.92-.04.11-.16.16-.37.16-.27,0-.55-.36-.86-1.08-1.11-2.68-2.66-4.87-4.64-6.58-2-1.7-4.17-2.55-6.5-2.55-2.05,0-3.93.66-5.65,1.98s-3.05,3.2-4,5.65c-.95,2.45-1.42,5.07-1.42,7.88,0,4.77,1.32,8.65,3.95,11.63,2.63,2.98,5.57,4.47,8.81,4.47,2.2,0,4.23-.7,6.08-2.09,1.85-1.39,3.24-3.01,4.18-4.84.25-.5.51-.76.78-.76.37,0,.55.2.55.6,0,.49-.64,1.55-1.92,3.2s-2.95,2.98-5.03,4.01c-2.08,1.03-4.31,1.54-6.69,1.54-2.81,0-5.48-.71-8-2.14-2.53-1.43-4.53-3.4-6.01-5.92-1.48-2.52-2.22-5.48-2.22-8.87s.72-6.33,2.16-9c1.44-2.67,3.46-4.75,6.07-6.22,2.61-1.48,5.3-2.22,8.07-2.22,1.48,0,2.99.23,4.54.69,1.55.46,3.13,1.16,4.74,2.1Z" fill="#e2881b"/>
            <path class="st8" d="M271.13,323.77c-2.84,0-5.57-.73-8.13-2.17-2.56-1.44-4.61-3.47-6.1-6.01-1.5-2.55-2.25-5.58-2.25-9s.74-6.42,2.19-9.12c1.45-2.7,3.53-4.83,6.16-6.32,4.04-2.29,8.31-2.89,12.81-1.55,1.51.45,3.07,1.14,4.64,2.04,1.01-.91,1.32-1.3,1.39-1.46.26-.62.66-.75.96-.75.34,0,.75.2.8,1.14l.55,8.79c0,.72-.04.93-.08,1.02-.06.15-.21.33-.6.33s-.73-.38-1.09-1.24c-1.09-2.63-2.63-4.81-4.57-6.49-1.94-1.65-4.08-2.49-6.34-2.49-1.98,0-3.83.65-5.49,1.93-1.67,1.29-2.99,3.15-3.91,5.54-.93,2.4-1.41,5.02-1.41,7.79,0,4.69,1.31,8.54,3.88,11.47,2.57,2.91,5.47,4.39,8.62,4.39,2.14,0,4.13-.69,5.93-2.04,1.81-1.37,3.19-2.96,4.11-4.75.3-.6.63-.89,1-.89.51,0,.8.31.8.85,0,.35-.2,1.08-1.97,3.35-1.29,1.67-3.02,3.04-5.12,4.08-2.1,1.04-4.39,1.56-6.8,1.56ZM271.19,289.39c-2.72,0-5.39.74-7.95,2.19-2.55,1.45-4.56,3.51-5.97,6.12-1.41,2.62-2.13,5.61-2.13,8.88s.74,6.28,2.18,8.75c1.45,2.47,3.44,4.43,5.92,5.83,2.48,1.4,5.13,2.11,7.88,2.11,2.34,0,4.55-.51,6.58-1.51,2.03-1,3.69-2.33,4.94-3.94,1.62-2.09,1.86-2.81,1.86-3.05,0-.3-.11-.35-.3-.35-.16,0-.36.23-.56.62-.96,1.86-2.39,3.52-4.26,4.93-1.88,1.42-3.98,2.14-6.23,2.14-3.3,0-6.33-1.53-9-4.56-2.66-3.02-4.01-6.98-4.01-11.8,0-2.82.48-5.5,1.44-7.97.96-2.48,2.33-4.41,4.08-5.75,1.75-1.35,3.7-2.03,5.8-2.03,2.39,0,4.63.88,6.67,2.61,2,1.73,3.59,3.97,4.71,6.67.38.92.62.93.62.93.11,0,.15-.02.15-.02,0,0,.03-.14.03-.81l-.55-8.78c-.03-.45-.13-.67-.3-.67-.13,0-.33.05-.5.45-.1.21-.38.62-1.65,1.75l-.13.12-.16-.09c-1.59-.92-3.17-1.62-4.69-2.08-1.52-.45-3.02-.68-4.47-.68Z" fill="#21409a"/>
          </g>
          <g>
            <path class="st6" d="M287.98,306.13c0-2.27.69-4.76,2.07-7.47,1.38-2.71,3.39-4.95,6.04-6.72,2.65-1.76,5.63-2.65,8.96-2.65,4.65,0,8.5,1.66,11.53,4.99,3.03,3.33,4.55,7.12,4.55,11.39,0,4.54-1.68,8.61-5.04,12.21-3.36,3.6-7.4,5.41-12.12,5.41s-8.31-1.58-11.38-4.74c-3.07-3.16-4.6-7.3-4.6-12.42ZM293.6,305.31c0,2.74.42,5.55,1.26,8.44.84,2.88,2.16,4.98,3.95,6.28,1.8,1.3,3.72,1.95,5.76,1.95,3.31,0,5.95-1.61,7.94-4.83,1.99-3.22,2.98-6.95,2.98-11.19s-1.02-7.71-3.05-10.81c-2.03-3.1-4.68-4.65-7.96-4.65-2.47,0-4.52.83-6.17,2.48-1.65,1.66-2.84,3.64-3.6,5.94-.75,2.3-1.13,4.43-1.13,6.38Z" fill="#e2881b"/>
            <path class="st8" d="M303.96,323.55c-4.57,0-8.46-1.62-11.56-4.82-3.1-3.19-4.67-7.43-4.67-12.6,0-2.3.7-4.85,2.09-7.59,1.39-2.74,3.45-5.03,6.12-6.81,2.68-1.78,5.74-2.69,9.1-2.69,4.7,0,8.65,1.71,11.71,5.07,3.06,3.36,4.62,7.25,4.62,11.56,0,4.58-1.72,8.75-5.11,12.38-3.39,3.64-7.53,5.49-12.31,5.49ZM305.05,289.54c-3.26,0-6.23.88-8.82,2.6-2.6,1.73-4.6,3.96-5.95,6.62-1.35,2.67-2.04,5.14-2.04,7.36,0,5.03,1.52,9.16,4.53,12.25,3,3.09,6.77,4.66,11.2,4.66s8.64-1.79,11.94-5.33c3.3-3.54,4.97-7.59,4.97-12.04,0-4.18-1.51-7.96-4.48-11.22-2.97-3.26-6.79-4.91-11.35-4.91ZM304.58,322.23c-2.09,0-4.08-.67-5.91-2-1.83-1.33-3.2-3.49-4.05-6.41-.84-2.89-1.27-5.76-1.27-8.51,0-1.97.39-4.14,1.15-6.46.76-2.33,2-4.36,3.66-6.04,1.69-1.7,3.82-2.56,6.35-2.56,3.35,0,6.09,1.6,8.16,4.77,2.05,3.13,3.09,6.81,3.09,10.94s-1.02,8.07-3.02,11.32c-2.03,3.28-4.77,4.95-8.16,4.95ZM304.5,290.75c-2.39,0-4.4.81-5.99,2.41-1.61,1.62-2.8,3.58-3.54,5.84-.74,2.27-1.12,4.39-1.12,6.3,0,2.7.42,5.52,1.25,8.37.82,2.82,2.12,4.88,3.86,6.15,1.74,1.26,3.63,1.91,5.62,1.91,3.2,0,5.8-1.58,7.73-4.71,1.96-3.17,2.95-6.88,2.95-11.06s-1.01-7.62-3-10.67c-1.97-3.01-4.58-4.54-7.75-4.54Z" fill="#21409a"/>
          </g>
          <g>
            <path class="st6" d="M326.04,289.85h12.63c.72,0,1.08.15,1.08.45s-.27.48-.81.53c-1.19.12-2.08.45-2.65.98-.57.54-1,1.49-1.3,2.85-.29,1.36-.44,4.28-.44,8.75,0,5.36.16,9.07.47,11.14.31,2.07,1.29,3.71,2.92,4.93,1.64,1.22,3.87,1.83,6.69,1.83s5.21-.56,6.75-1.69c1.54-1.12,2.55-2.8,3.01-5.02.46-2.22.69-7.03.69-14.44,0-3.81-.39-6.31-1.18-7.5-.79-1.18-1.96-1.78-3.5-1.78-.62,0-.93-.18-.93-.53s.41-.5,1.24-.5h10.08c.45,0,.68.17.68.5,0,.24-.18.38-.55.43-1.28.19-2.21.59-2.81,1.21-.6.62-.99,1.75-1.17,3.38-.19,1.63-.28,4.02-.28,7.18,0,3.95-.15,7.3-.44,10.06s-.93,4.81-1.9,6.16-2.44,2.44-4.4,3.28c-1.96.83-4.37,1.25-7.22,1.25s-5.41-.47-7.47-1.4-3.45-2.17-4.18-3.71c-.73-1.54-1.1-3.84-1.1-6.9l.1-6.99c0-6.2-.26-10-.79-11.39-.53-1.39-1.67-2.1-3.42-2.13-.57,0-.86-.14-.86-.42,0-.34.35-.52,1.06-.52Z" fill="#e2881b"/>
            <path class="st8" d="M342.7,323.55c-2.95,0-5.49-.48-7.58-1.42-2.1-.95-3.55-2.24-4.31-3.83-.74-1.56-1.12-3.92-1.12-7.01l.1-6.99c0-6.14-.26-9.94-.78-11.3-.49-1.29-1.54-1.94-3.19-1.97-.91,0-1.1-.36-1.1-.67,0-.35.23-.77,1.31-.77h12.63c.88,0,1.33.24,1.33.7,0,.31-.18.7-1.03.78-1.13.11-1.97.42-2.5.92-.53.5-.94,1.42-1.22,2.72-.29,1.34-.44,4.26-.44,8.69,0,5.33.16,9.06.46,11.1.3,1.99,1.25,3.59,2.83,4.76,1.59,1.18,3.79,1.78,6.54,1.78s5.11-.55,6.61-1.64c1.49-1.08,2.47-2.72,2.91-4.86.46-2.19.69-7.03.69-14.39,0-3.75-.38-6.22-1.14-7.36-.75-1.12-1.82-1.67-3.29-1.67-.98,0-1.18-.42-1.18-.78,0-.75,1.12-.75,1.49-.75h10.08c.84,0,.93.53.93.75,0,.21-.1.58-.77.68-1.21.18-2.11.56-2.66,1.13-.56.58-.93,1.67-1.1,3.23-.18,1.61-.28,4.01-.28,7.16,0,3.94-.15,7.33-.44,10.08-.3,2.79-.95,4.9-1.95,6.28-1,1.38-2.51,2.51-4.5,3.36-1.98.84-4.44,1.27-7.32,1.27ZM326.04,290.1c-.24,0-.81.03-.81.27,0,.1.24.17.61.17,1.86.04,3.08.81,3.65,2.29.55,1.43.81,5.18.81,11.48l-.1,6.99c0,3.01.36,5.29,1.07,6.79.7,1.48,2.07,2.68,4.06,3.59,2.02.91,4.5,1.38,7.37,1.38s5.21-.41,7.12-1.23c1.91-.81,3.35-1.88,4.29-3.19.95-1.31,1.57-3.34,1.86-6.04.29-2.74.44-6.11.44-10.03,0-3.16.09-5.59.28-7.21.19-1.7.6-2.85,1.24-3.52.63-.66,1.62-1.09,2.95-1.28.23-.03.34-.09.34-.18,0-.09,0-.25-.43-.25h-10.08c-.73,0-.99.14-.99.25,0,.07,0,.28.68.28,1.63,0,2.88.64,3.71,1.89.83,1.24,1.23,3.74,1.23,7.64,0,7.39-.23,12.27-.7,14.49-.47,2.27-1.52,4.01-3.11,5.17-1.58,1.15-3.91,1.74-6.9,1.74s-5.17-.63-6.84-1.88c-1.69-1.25-2.7-2.97-3.02-5.09-.31-2.07-.47-5.83-.47-11.18,0-4.46.15-7.42.45-8.8.31-1.42.76-2.4,1.37-2.98.61-.57,1.55-.93,2.79-1.05.27-.02.58-.09.58-.28,0-.1-.26-.2-.83-.2h-12.63Z" fill="#21409a"/>
          </g>
          <g>
            <path class="st6" d="M371.86,290.03c1.01,1.36,2.76,3.47,5.24,6.33l8.07,9.35,7.76,8.97c.17-3.04.25-6.99.25-11.85,0-3.65-.08-6.09-.23-7.32-.15-1.23-.71-2.27-1.68-3.11-.97-.84-2.17-1.26-3.62-1.26-.67,0-1.01-.14-1.01-.43,0-.17.07-.29.21-.37.14-.08,1.27-.15,3.39-.23s3.9-.11,5.34-.11l3.4.02h.55c.52,0,.78.15.78.44,0,.26-.23.42-.68.47-1.7.18-2.92.63-3.67,1.32-.75.7-1.19,1.7-1.34,3.01s-.21,5.73-.21,13.24l-.25,13.32c0,.67-.17,1.01-.5,1.01-.09,0-.2-.04-.35-.11-.15-.08-.9-.92-2.26-2.55-1.36-1.62-3.04-3.57-5.03-5.83-1.99-2.27-3.56-4.11-4.7-5.52-2.5-3.04-4.08-4.92-4.74-5.62-2.44-2.59-3.87-4.25-4.31-4.99-.29-.5-.55-.76-.78-.76-.18,0-.28.33-.28.98l.05,3.91c0,4.96.13,8.91.4,11.87.27,2.96.55,4.69.84,5.21.29.51.81,1.03,1.54,1.55.73.52,1.51.78,2.33.78,1.11,0,1.66.2,1.66.61,0,.3-.31.45-.93.45l-12.12-.03c-.57,0-.86-.14-.86-.43,0-.34.28-.5.83-.5,2.07,0,3.44-.46,4.13-1.37.69-.92,1.03-2.86,1.03-5.83l-.21-8.85c0-5.23-.14-8.3-.42-9.24-.29-.93-.93-2.07-1.93-3.4s-2.14-2.09-3.42-2.26c-.57-.07-.86-.22-.86-.45,0-.32.37-.48,1.11-.48l7.41.05Z" fill="#e2881b"/>
            <path class="st8" d="M393.7,323.09c-.13,0-.28-.05-.46-.14-.09-.05-.26-.14-2.34-2.61-1.37-1.63-3.06-3.59-5.02-5.83-1.98-2.25-3.56-4.11-4.71-5.53-2.53-3.07-4.08-4.91-4.73-5.61-2.47-2.62-3.89-4.27-4.34-5.03-.26-.46-.43-.59-.52-.62-.03.07-.08.26-.08.72l.05,3.9c0,4.93.14,8.91.4,11.85.33,3.62.62,4.77.81,5.1.27.48.77.97,1.47,1.47.68.49,1.42.73,2.19.73.47,0,1.91,0,1.91.86,0,.32-.21.7-1.18.7l-12.12-.03c-.91,0-1.11-.37-1.11-.68,0-.28.14-.75,1.08-.75,1.97,0,3.3-.43,3.93-1.27.65-.87.98-2.78.98-5.68l-.21-8.84c0-5.18-.13-8.27-.41-9.17-.28-.9-.91-2.02-1.89-3.33-.95-1.27-2.05-2-3.25-2.16-.26-.03-1.08-.13-1.08-.7,0-.48.46-.73,1.36-.73l7.54.05.07.1c1,1.35,2.76,3.47,5.23,6.31l15.42,17.85c.15-2.94.22-6.71.22-11.21,0-3.62-.08-6.08-.22-7.29-.14-1.17-.68-2.16-1.59-2.95-.92-.8-2.08-1.2-3.45-1.2-.83,0-1.26-.23-1.26-.68,0-.26.12-.47.35-.59.1-.05.27-.14,3.5-.26,2.12-.08,3.92-.11,5.35-.11l3.96.02c.9,0,1.03.43,1.03.69,0,.28-.16.63-.9.72-1.63.18-2.82.6-3.52,1.26-.7.65-1.12,1.62-1.26,2.86-.14,1.3-.21,5.74-.21,13.21l-.25,13.32c0,1.04-.41,1.25-.75,1.25ZM371.53,297.21c.34,0,.66.28,1,.88.42.72,1.86,2.38,4.27,4.94.66.71,2.21,2.55,4.75,5.63,1.14,1.41,2.72,3.26,4.69,5.51,1.97,2.24,3.66,4.21,5.03,5.84,1.76,2.1,2.12,2.44,2.19,2.49.15.08.21.08.22.08.22,0,.25-.53.25-.76l.25-13.32c0-7.49.07-11.95.21-13.26.15-1.37.62-2.43,1.41-3.17.78-.73,2.07-1.2,3.81-1.39.21-.02.46-.08.46-.22,0-.16-.29-.19-.53-.19l-3.96-.02c-1.42,0-3.22.04-5.33.11-2.72.1-3.21.17-3.3.2-.04.02-.07.05-.07.14,0,.07.2.18.76.18,1.5,0,2.77.44,3.78,1.32,1.01.88,1.6,1.98,1.76,3.27.15,1.24.23,3.71.23,7.35,0,4.84-.08,8.83-.25,11.86l-.03.62-16.23-18.79c-2.42-2.78-4.16-4.88-5.18-6.24l-7.29-.05c-.52,0-.86.09-.86.23,0,.03.11.14.64.21,1.34.18,2.55.97,3.59,2.35,1.01,1.35,1.67,2.52,1.97,3.48.3.96.44,4.01.43,9.31l.21,8.84c0,3.06-.35,5.02-1.08,5.99-.74.98-2.19,1.47-4.33,1.47-.58,0-.58.19-.58.25,0,.13.31.18.61.18l12.12.03c.33,0,.68-.05.68-.2,0-.16-.37-.36-1.41-.36-.87,0-1.71-.28-2.48-.83-.76-.54-1.3-1.09-1.61-1.63-.32-.55-.6-2.28-.88-5.31-.27-2.95-.4-6.96-.4-11.89l-.05-3.9c0-.37,0-1.24.53-1.24Z" fill="#21409a"/>
          </g>
          <g>
            <path class="st6" d="M417.13,291.24c-1.31-.07-2.24-.1-2.77-.1-3.63,0-6.26.76-7.89,2.28-1.63,1.52-2.58,2.87-2.85,4.05-.08.42-.31.63-.68.63-.17,0-.33-.08-.48-.24.08-2,.41-4.7.98-8.1.81-.02,1.32-.03,1.54-.03,1.31,0,3.07.07,5.27.2,2.37.13,6,.2,10.89.2s8.27-.06,9.78-.18c1.38-.13,3.27-.2,5.67-.2.2,1.21.34,2.47.4,3.78.1,1.5.2,2.55.3,3.15.02.13.03.28.03.43,0,.4-.18.6-.53.6-.22,0-.4-.07-.54-.21s-.46-.62-.97-1.42c-.87-1.36-1.78-2.39-2.72-3.09-.94-.7-1.99-1.15-3.15-1.35-1.16-.2-3.5-.33-7.04-.4-.2,2.54-.3,5.44-.3,8.7,0,10.79.23,17.15.69,19.08.46,1.93,2.11,2.9,4.95,2.9.69,0,1.03.14,1.03.43,0,.34-.33.5-.98.5h-15.5c-.4,0-.6-.16-.6-.48s.39-.48,1.18-.48c1.33,0,2.4-.37,3.21-1.12.82-.75,1.29-1.76,1.41-3.04.13-1.28.19-4.97.19-11.06,0-5.21-.18-10.35-.53-15.42Z" fill="#e2881b"/>
            <path class="st8" d="M427.77,323.09h-15.5c-.77,0-.85-.51-.85-.73,0-.73,1.08-.73,1.43-.73,1.26,0,2.28-.36,3.04-1.06.76-.7,1.21-1.67,1.33-2.88.12-1.26.19-4.97.19-11.04,0-5.11-.17-10.22-.51-15.19-1.19-.06-2.04-.09-2.54-.09-3.55,0-6.15.74-7.72,2.21-1.59,1.48-2.52,2.79-2.78,3.92-.14.72-.64.83-.92.83-.24,0-.46-.11-.66-.32l-.07-.08v-.1c.09-2,.42-4.74.99-8.13l.03-.21h.21c.81-.02,1.32-.03,1.54-.03,1.3,0,3.08.07,5.28.2,2.35.13,6.01.2,10.87.2s8.26-.06,9.76-.18c1.38-.13,3.29-.2,5.69-.2h.21l.04.21c.2,1.22.34,2.5.41,3.81.1,1.48.2,2.53.3,3.12.02.16.03.31.03.47,0,.54-.28.85-.78.85-.29,0-.53-.1-.72-.29-.1-.1-.31-.36-1-1.47-.85-1.33-1.75-2.34-2.66-3.02-.91-.67-1.93-1.11-3.05-1.3-1.11-.19-3.39-.33-6.76-.39-.19,2.46-.28,5.3-.28,8.44,0,10.72.23,17.12.69,19.02.44,1.82,1.98,2.71,4.71,2.71.85,0,1.28.23,1.28.68,0,.34-.21.75-1.23.75ZM414.36,290.88c.54,0,1.45.03,2.79.1h.22s.01.23.01.23c.35,5.05.53,10.24.53,15.44,0,6.17-.06,9.79-.19,11.09-.13,1.33-.63,2.41-1.49,3.2-.86.79-2,1.19-3.38,1.19-.74,0-.93.14-.93.23,0,.1,0,.23.35.23h15.5c.27,0,.73-.03.73-.25,0-.07-.21-.18-.78-.18-2.96,0-4.71-1.04-5.2-3.09-.47-1.97-.7-8.23-.7-19.14,0-3.25.1-6.18.3-8.71l.02-.24h.24c3.58.07,5.89.21,7.07.41,1.19.21,2.29.68,3.26,1.39.96.71,1.9,1.77,2.79,3.15.65,1.03.87,1.31.94,1.38.09.09.21.14.36.14s.28-.03.28-.35c0-.14,0-.27-.02-.4-.1-.6-.2-1.67-.3-3.16-.06-1.22-.19-2.41-.37-3.55-2.28,0-4.11.07-5.43.2-1.51.12-4.81.18-9.8.18s-8.54-.07-10.9-.2c-2.19-.13-3.96-.2-5.25-.2-.2,0-.64,0-1.33.02-.54,3.22-.85,5.82-.94,7.75.08.06.15.09.22.09.18,0,.36-.05.43-.43.28-1.23,1.26-2.64,2.92-4.18,1.67-1.56,4.38-2.34,8.06-2.34Z" fill="#21409a"/>
          </g>
          <g>
            <path class="st6" d="M457.96,305.6c.94-1.04,2.37-2.92,4.3-5.65,1.92-2.72,3.06-4.41,3.4-5.08.34-.66.52-1.19.52-1.58,0-.69-.35-1.24-1.05-1.65-.7-.41-1.41-.62-2.13-.62-.57,0-.86-.15-.86-.45,0-.32.48-.48,1.44-.48h9.5c.87,0,1.31.18,1.31.53,0,.29-.19.43-.58.43-.99,0-1.95.23-2.86.68-.92.45-2.03,1.47-3.34,3.05l-4.39,5.92c-2.3,3.09-3.55,4.91-3.73,5.44-.27.79-.4,2.88-.4,6.28,0,4.5.19,7.17.57,8.01.38.84,1.6,1.35,3.67,1.54.54.05.81.22.81.5,0,.34-.29.5-.88.5l-6.79-.15c-1.63,0-2.97.03-4.01.1-.84.07-1.38.1-1.62.1-.64,0-.96-.17-.96-.5,0-.27.24-.41.71-.43,1.62-.07,2.7-.67,3.24-1.82.54-1.14.81-2.83.81-5.07,0-2.45-.15-4.44-.45-5.95-.07-.39-.79-1.76-2.17-4.12-1.38-2.36-3.06-4.97-5.05-7.84-1.99-2.86-3.42-4.61-4.27-5.23-.86-.62-1.69-.97-2.5-1.03-.61-.05-.91-.22-.91-.5,0-.18.08-.31.24-.37.16-.06.63-.09,1.42-.09h11.01c.76,0,1.21.03,1.36.08.15.05.23.18.23.4,0,.27-.21.42-.63.45-2.12.17-3.18.81-3.18,1.92,0,.57.39,1.47,1.16,2.7.77,1.23,3.13,4.55,7.06,9.96Z" fill="#e2881b"/>
            <path class="st8" d="M450.83,323.29c-1,0-1.21-.41-1.21-.75,0-.24.12-.65.95-.68,1.53-.06,2.52-.61,3.03-1.67.52-1.1.79-2.77.79-4.96,0-2.42-.15-4.41-.45-5.9-.04-.25-.45-1.15-2.14-4.04-1.37-2.35-3.07-4.98-5.04-7.82-1.97-2.83-3.38-4.57-4.21-5.17-.82-.59-1.61-.92-2.37-.99s-1.14-.32-1.14-.75c0-.29.14-.5.4-.6.13-.05.42-.1,1.51-.1h11.01c1.04,0,1.32.05,1.44.09.15.05.4.2.4.64,0,.24-.11.64-.86.7-1.95.16-2.95.72-2.95,1.67,0,.52.38,1.38,1.12,2.56.76,1.2,3.07,4.46,6.87,9.69.93-1.07,2.3-2.88,4.07-5.39,1.91-2.7,3.05-4.4,3.39-5.05.32-.63.49-1.12.49-1.46,0-.6-.3-1.07-.92-1.44-.66-.39-1.33-.58-2-.58-.92,0-1.11-.38-1.11-.7,0-.73,1.23-.73,1.69-.73h9.5c.39,0,1.56,0,1.56.78,0,.2-.08.68-.83.68-.95,0-1.87.22-2.75.65-.88.43-1.97,1.44-3.26,2.99l-4.38,5.91c-2.84,3.81-3.58,5.03-3.7,5.38-.26.76-.39,2.85-.39,6.2,0,4.45.18,7.11.54,7.91.34.75,1.5,1.22,3.46,1.39.85.08,1.03.45,1.03.75,0,.28-.15.75-1.13.75l-6.8-.15c-1.62,0-2.96.03-3.99.1-.84.07-1.39.1-1.63.1ZM440.95,290.35c-1.03,0-1.28.05-1.34.07-.05.02-.08.04-.08.13,0,.12.26.22.68.25.85.07,1.73.43,2.62,1.08.89.64,2.3,2.38,4.33,5.29,1.98,2.86,3.69,5.5,5.06,7.86,1.87,3.21,2.15,3.94,2.2,4.2.3,1.52.46,3.53.46,5.99,0,2.26-.28,4-.83,5.17-.58,1.23-1.74,1.89-3.46,1.96-.18,0-.47.04-.47.18,0,.22.44.25.71.25.23,0,.77-.03,1.6-.1,1.04-.07,2.4-.1,4.03-.1l6.8.15c.42,0,.63-.08.63-.25s-.36-.24-.58-.26c-2.18-.2-3.45-.75-3.87-1.68-.4-.88-.59-3.54-.59-8.12,0-3.45.14-5.53.42-6.36.19-.57,1.43-2.37,3.77-5.51l4.38-5.92c1.36-1.63,2.47-2.65,3.43-3.12.95-.47,1.95-.71,2.97-.71.33,0,.33-.1.33-.18,0-.13-.28-.28-1.06-.28h-9.5c-.99,0-1.19.18-1.19.23,0,.18.42.2.61.2.76,0,1.52.22,2.26.65.78.46,1.17,1.09,1.17,1.87,0,.43-.18.98-.54,1.69-.35.68-1.47,2.35-3.42,5.11-1.92,2.71-3.37,4.62-4.32,5.67l-.21.23-.18-.25c-3.91-5.38-6.29-8.74-7.07-9.97-.81-1.28-1.2-2.21-1.2-2.83,0-1.26,1.15-1.99,3.41-2.17.4-.03.4-.16.4-.2,0-.15-.04-.16-.05-.17-.06-.02-.3-.06-1.28-.06h-11.01Z" fill="#21409a"/>
          </g>
        </g>
    
        <g>
          <path class="st8" d="M45.36,348.79c-2.97,0-5.13-.61-8.4-2.16l1.76-3.47c2.58,1.33,4.72,1.84,6.36,1.84s3.33-.3,3.33-1.05c0-.65-2.6-.81-4.08-.89-3.23-.18-7.31-.93-7.31-4.38,0-3.92,5.25-4.7,8.28-4.7,2.69,0,5.21.67,8.16,2.1l-1.49,3.09c-2.46-1.11-4.85-1.41-6.66-1.41-2.48,0-2.99.5-2.99.81,0,.52,2.46.63,3.37.63,3.15.24,8.03.69,8.03,4.74s-4.48,4.86-8.36,4.86Z" fill="#21409a"/>
          <path class="st8" d="M77.43,348.77c-5.45,0-9.69-2.52-9.69-7.45,0-4.58,3.77-7.41,9.41-7.41,3.63,0,6.66,1.13,8.2,2.48l-1.86,3.29c-2.04-1.33-4-1.78-6.02-1.78-2.24,0-4.16.93-4.16,3.25s1.94,3.27,4.14,3.27,4.32-.34,6.04-1.74l1.82,3.39c-1.39,1.23-3.78,2.69-7.87,2.69Z" fill="#21409a"/>
          <path class="st8" d="M111.1,343.58h-5.9v4.87h-5.49v-14.15h5.51v5.25h5.87v-5.25h5.51v14.15h-5.51v-4.87Z" fill="#21409a"/>
          <path class="st8" d="M141.01,348.81c-5.47,0-10.05-2.5-10.05-7.43s4.22-7.47,10.05-7.47,10.05,2.64,10.05,7.53-4.48,7.37-10.05,7.37ZM141.01,337.79c-3.15,0-4.82,1.49-4.82,3.65,0,2.02,1.68,3.55,4.82,3.55s4.82-1.47,4.82-3.55-1.7-3.65-4.82-3.65Z" fill="#21409a"/>
          <path class="st8" d="M174.73,348.81c-5.47,0-10.05-2.5-10.05-7.43s4.22-7.47,10.05-7.47,10.05,2.64,10.05,7.53-4.48,7.37-10.05,7.37ZM174.73,337.79c-3.15,0-4.82,1.49-4.82,3.65,0,2.02,1.68,3.55,4.82,3.55s4.82-1.47,4.82-3.55-1.7-3.65-4.82-3.65Z" fill="#21409a"/>
          <path class="st8" d="M198.85,334.3h5.47v10.09h10.11v4.06h-15.56l-.02-14.15Z" fill="#21409a"/>
          <path class="st8" d="M257.51,348.45h-8.44v-14.15h9.21c5.71,0,8.46,3.35,8.46,7.07,0,4.04-3.09,7.09-9.23,7.09ZM256.66,337.93h-2.12c0,4.97-.02,5.51-.02,6.86h2.06c3.21,0,4.83-1.47,4.83-3.35,0-2-1.01-3.51-4.74-3.51Z" fill="#21409a"/>
          <path class="st8" d="M281.64,334.3h5.47v14.15h-5.47v-14.15Z" fill="#21409a"/>
          <path class="st8" d="M309.58,348.79c-2.97,0-5.13-.61-8.4-2.16l1.76-3.47c2.58,1.33,4.72,1.84,6.36,1.84s3.33-.3,3.33-1.05c0-.65-2.6-.81-4.08-.89-3.23-.18-7.31-.93-7.31-4.38,0-3.92,5.25-4.7,8.28-4.7,2.68,0,5.21.67,8.16,2.1l-1.49,3.09c-2.46-1.11-4.84-1.41-6.66-1.41-2.48,0-2.99.5-2.99.81,0,.52,2.46.63,3.37.63,3.15.24,8.04.69,8.04,4.74s-4.48,4.86-8.36,4.86Z" fill="#21409a"/>
          <path class="st8" d="M342.68,348.47h-5.51l-.02-10.36h-6.26v-3.82h18.05v3.82h-6.26v10.36Z" fill="#21409a"/>
          <path class="st8" d="M368.41,343.44h-.69v5.01h-5.41l-.02-14.15h9.85c4.16,0,6.34,1.76,6.34,4.44,0,2.04-1.86,3.61-4.32,4.28,1.53,1.41,3.98,3.45,5.47,4.83l-.22.61h-5.49l-5.51-5.01ZM371.2,337.59h-3.47v2.3h3.33c1.25-.02,1.9-.63,1.9-1.13s-.46-1.17-1.76-1.17Z" fill="#21409a"/>
          <path class="st8" d="M393.76,334.3h5.47v14.15h-5.47v-14.15Z" fill="#21409a"/>
          <path class="st8" d="M423.19,348.77c-5.45,0-9.69-2.52-9.69-7.45,0-4.58,3.77-7.41,9.41-7.41,3.63,0,6.66,1.13,8.2,2.48l-1.86,3.29c-2.04-1.33-4-1.78-6.02-1.78-2.24,0-4.16.93-4.16,3.25s1.94,3.27,4.14,3.27,4.32-.34,6.04-1.74l1.82,3.39c-1.39,1.23-3.77,2.69-7.87,2.69Z" fill="#21409a"/>
          <path class="st8" d="M455.85,348.47h-5.51l-.02-10.36h-6.26v-3.82h18.05v3.82h-6.26v10.36Z" fill="#21409a"/>
        </g>
        <g>
          <path id="reaching_arm1" class="st1" d="M243.12,80.77s3.04,17.89-11.04,46.05c-14.08,28.16,7.23,83.73,7.23,83.73,0,0-1.14,6.47-9.51-25.12-8.37-31.59-5.33-51.38-4.57-62.8.76-11.42,16.37-34.25,17.89-41.86Z" fill="#f7941d"/>
          <path id="shoulder1" class="st1" d="M265.95,177.44v29.31c0,3.81,2.38.75,2.38-7.57s.57-15.46,1.71-15.46,19.7,24.5,22.26,27.38c2.57,2.88,4.57.88-2-7.68-6.57-8.56-14.27-23.98-17.13-25.98-2.85-2-5.04-2.57-7.23,0Z" fill="#f7941d"/>
          <path id="other_arm1" class="st1" d="M300.02,207.7c-1.85-2.68-16.56-25.42-20.84-31.98s-4.28-15.12-15.7-15.12-14.65,4.28-17.7,6.95c-3.04,2.66-8.37,3.81-8.37,1.52s5.71-4.19,9.13-6.85,5.71-5.71,14.46-6.09c8.75-.38,15.46,2.66,19.34,8.37,3.88,5.71,16.82,32.73,19.67,37.3,2.85,4.57,2.07,8.9,0,5.9Z" fill="#f7941d"/>
          <path id="head1" class="st1" d="M263.29,141.66c-3.03,3.53-5.71,6.85-4.19,7.99s11.8-5.33,12.94-7.99c1.14-2.66,4.33-12.56-2.4-20.17-6.73-7.61-15.49-7.23-20.81-5.71-5.33,1.52-14.59,19.41-15.1,23.22-.51,3.81,6.34,8.26,6.72,10.79s1.27,20.03,1.27,20.03l5.48-5.8s1.43-11.42,0-14.56c-1.43-3.14-8.47-7.99-9.8-10.28s6.37-13.7,11.8-17.41c5.42-3.71,11.7-1.43,14.56,3.14s3.77,11.8-.48,16.75Z" fill="#f7941d"/>
          <path id="star1" class="st8" d="M280.34,33.58c-6.59-9.13-2.59-26.26-3.73-25.12s-11.46,12.84-22.86,16.84c-11.4,4-32.57-3.71-29.69,0,2.88,3.71,10.87,9.99,11.16,20.27.29,10.28-12.17,16.84-1.52,40.25,0,0,4.09-12.84,8.37-16.27,4.28-3.43,9.42-4,13.99,5.71,4.57,9.71,8.56,12.56,8.56,12.56,0,0-5.14-14.84,3.71-26.83,8.85-11.99,22.26-17.98,29.11-18.55,6.85-.57-10.51.29-17.1-8.85ZM265.95,51.56c-7.52,9.13-4.76,24.26-5.9,19.7-1.14-4.57-7.14-12.27-11.99-12.85-4.85-.57-13.13,10.56-13.13,10.56,0,0,5.42-14.56,5.71-22.7.29-8.14-6.94-14.69-6.94-14.69,0,0,11.22.57,19.29-.29,8.06-.86,16.65-10.85,16.65-10.85,0,0-1.59,9.71,1.55,15.13s9.16,5.42,9.16,5.42c0,0-6.87,1.43-14.39,10.56Z" fill="#21409a"/>
          <path id="book_cover1" class="st8" d="M123.04,251.27c-2.85,0-2.57,7.14,0,7.14h116.75s0,2.85,1.43,2.85h19.7c1.71,0,.95-3.71.95-3.71,0,0,111.23.28,113.22.28s2.57-5.99,0-6.57-113.32.03-113.32.03c0,0-1.14,4.44-10.85,4.44s-9.71-4.44-9.71-4.44l-118.17-.03Z" fill="#21409a"/>
          <path id="pageleft1" class="st8" d="M248.91,245.66s-8.83,1.14-16.54,0c-7.71-1.14-21.12-6.57-41.39-5.99-20.27.57-50.24,7.71-55.66,7.71s-2.85-3.79,13.7-7.75c16.56-3.95,56.52-5.1,59.94-3.95s17.7,4.28,17.7,4.28c0,0-12.56-10.56-23.69-11.42-11.13-.86-41.1-.57-49.38,0-8.28.57-15.98,3.71-17.41,4s2.28-6.28,8.28-7.14c5.99-.86,54.23-1.43,59.37,0,5.14,1.43,33.59,12.56,33.59,12.56,0,0-7.33-6.28-16.46-11.7s-20.27-7.99-33.11-8.28c-12.84-.29-43.39,0-46.24,0s-.86-3.71,11.7-4c12.56-.29,36.25-1.43,43.67,0,7.42,1.43,21.07,5.14,27.09,9.42,6.02,4.28,16.3,11.42,16.3,11.42,0,0-9.71-15.39-21.98-21.54-12.27-6.15-35.68-12.62-68.79-14.1-13.42-3.83,23.98-4.33,28.54-3.76,4.57.57,26.83,3.41,40.53,13.27,13.7,9.85,23.98,21.56,27.69,27.55,3.71,5.99,4.89,9.19,2.55,9.42Z" fill="#21409a"/>
          <path id="pageright1" class="st8" d="M290.6,240.81c-7.95,1.66-17.41,5.42-22.26,5.42s-13.17.29-14.58,0-.26-5.99,4.02-8.56c4.28-2.57,17.41-17.41,32.83-21.41s51.95-5,58.8-3.93c6.85,1.07,10.85,1.36,12.56,1.93s3.43,5.99-25.4,3.43c-28.83-2.57-33.4-2.51-45.67,3.74-12.27,6.25-21.24,10.96-21.24,10.96,0,0,33.23-10.93,47.79-10.96,14.56-.03,41.3,4.82,45.34,6.53s4.04,5.71-8.52,3.71-19.41-3.14-33.68-3.14-26.1,3.78-34.25,5.42c-25.55,5.14,16.56,1.14,26.26,1.14s35.39,1.43,42.53,4.28c7.14,2.85,11.7,4,13.42,5.14s-9.42,2.28-15.13.29c-5.71-2-16.84-3.71-35.68-3.71s-24.33-.87-27.12-.29Z" fill="#21409a"/>
        </g>
      </g>
    </g>
  </g>
</svg>
